<svg width="1440" height="128" viewBox="0 0 1440 128" fill="none" xmlns="http://www.w3.org/2000/svg">
<rect width="1504.33" height="55.0856" transform="translate(-32.8358 65.74) rotate(-2.24742)" fill="#FBD206"/>
<path d="M28.194 73.8958L33.3729 86.0019L45.8476 90.2161L33.7415 95.395L29.5273 107.87L24.3485 95.7636L11.8737 91.5494L23.9798 86.3706L28.194 73.8958Z" fill="#F07B6E"/>
<path d="M64.3578 71.5668L69.3993 71.3689L82.3902 99.8587L82.799 99.8426L93.5171 70.4224L98.5587 70.2245L99.9277 105.107L95.9762 105.262L94.9361 78.7595L94.5954 78.7729L84.7348 105.703L80.9196 105.853L68.9788 79.7782L68.6381 79.7916L69.6782 106.294L65.7267 106.449L64.3578 71.5668ZM117.782 104.952C115.42 105.045 113.326 104.564 111.499 103.51C109.684 102.455 108.237 100.937 107.158 98.9549C106.091 96.9725 105.504 94.63 105.398 91.9276C105.291 89.2024 105.692 86.8042 106.6 84.7329C107.519 82.6611 108.843 81.0284 110.57 79.8348C112.309 78.6407 114.359 77.9973 116.721 77.9046C119.082 77.8119 121.171 78.2929 122.987 79.3475C124.813 80.4017 126.261 81.9256 127.328 83.9194C128.407 85.9127 129 88.2719 129.107 90.9971C129.213 93.6996 128.806 96.081 127.886 98.1414C126.978 100.201 125.654 101.828 123.916 103.022C122.188 104.216 120.144 104.859 117.782 104.952ZM117.64 101.341C119.434 101.271 120.893 100.753 122.015 99.7877C123.137 98.8225 123.947 97.5795 124.444 96.0589C124.942 94.5382 125.156 92.9035 125.088 91.1549C125.019 89.4062 124.677 87.7877 124.061 86.2993C123.445 84.811 122.54 83.624 121.346 82.7383C120.151 81.8527 118.656 81.445 116.862 81.5155C115.068 81.5859 113.61 82.1093 112.489 83.0859C111.367 84.0625 110.558 85.3167 110.061 86.8488C109.563 88.3808 109.349 90.0212 109.418 91.7698C109.486 93.5185 109.828 95.1313 110.444 96.6083C111.059 98.0853 111.964 99.261 113.158 100.135C114.352 101.01 115.846 101.412 117.64 101.341ZM154.461 76.7647L145.813 103.306L141.725 103.466L131.024 77.6844L135.385 77.5133L143.424 98.0775L143.697 98.0668L150.101 76.9358L154.461 76.7647ZM160.074 102.746L159.047 76.5847L163.067 76.4269L164.093 102.589L160.074 102.746ZM160.92 72.1442C160.136 72.1749 159.45 71.9346 158.861 71.4232C158.284 70.9114 157.981 70.2807 157.951 69.5313C157.922 68.7819 158.175 68.1294 158.71 67.5739C159.257 67.0179 159.922 66.7246 160.706 66.6938C161.489 66.6631 162.17 66.9036 162.747 67.4155C163.336 67.9269 163.645 68.5573 163.674 69.3067C163.704 70.0561 163.445 70.7088 162.898 71.2648C162.363 71.8203 161.703 72.1134 160.92 72.1442ZM181.726 102.442C179.205 102.541 177.009 102.07 175.137 101.029C173.276 99.9765 171.813 98.4645 170.746 96.4935C169.69 94.5106 169.11 92.1793 169.004 89.4996C168.899 86.8198 169.295 84.4388 170.191 82.3566C171.098 80.2626 172.409 78.6077 174.124 77.3918C175.85 76.164 177.894 75.5038 180.256 75.4112C181.619 75.3577 182.973 75.532 184.319 75.934C185.666 76.3361 186.904 77.0267 188.034 78.0059C189.164 78.9737 190.085 80.2794 190.798 81.9232C191.511 83.567 191.915 85.6095 192.011 88.0508L192.078 89.7541L171.911 90.5455L171.775 87.0709L187.853 86.4399C187.796 84.9637 187.449 83.6582 186.813 82.5231C186.188 81.3877 185.323 80.5061 184.218 79.8785C183.125 79.2505 181.851 78.965 180.398 79.022C178.797 79.0848 177.427 79.5366 176.289 80.3774C175.161 81.2063 174.31 82.2632 173.735 83.5481C173.16 84.833 172.901 86.1965 172.957 87.6386L173.048 89.955C173.126 91.9307 173.532 93.5922 174.267 94.9394C175.013 96.2748 176.014 97.2762 177.268 97.9434C178.522 98.5993 179.961 98.8953 181.585 98.8316C182.641 98.7902 183.589 98.6051 184.429 98.2765C185.28 97.936 186.005 97.4526 186.606 96.8263C187.207 96.1887 187.66 95.4089 187.965 94.4872L191.891 95.4248C191.534 96.7581 190.892 97.9432 189.966 98.9803C189.04 100.006 187.878 100.825 186.48 101.437C185.082 102.038 183.498 102.373 181.726 102.442ZM211.248 100.738L209.879 65.8558L221.665 65.3932C224.402 65.2858 226.658 65.692 228.434 66.6117C230.221 67.5196 231.567 68.7916 232.473 70.4278C233.379 72.064 233.872 73.9097 233.953 75.965C234.034 78.0202 233.687 79.9046 232.912 81.6181C232.149 83.3311 230.919 84.7214 229.221 85.7888C227.522 86.8448 225.316 87.4261 222.602 87.5326L214.154 87.8641L214.007 84.117L222.319 83.7908C224.193 83.7173 225.684 83.3346 226.794 82.6429C227.905 81.9511 228.694 81.0444 229.161 79.923C229.64 78.7897 229.852 77.5247 229.797 76.1281C229.742 74.7314 229.432 73.4926 228.866 72.4117C228.312 71.3303 227.449 70.4999 226.278 69.9204C225.106 69.3295 223.572 69.0713 221.676 69.1457L214.25 69.4371L215.472 100.572L211.248 100.738ZM240.429 99.5928L239.402 73.4311L243.285 73.2787L243.44 77.2302L243.713 77.2196C244.139 75.9064 244.961 74.8222 246.178 73.967C247.396 73.1117 248.788 72.6534 250.355 72.5919C250.65 72.5803 251.019 72.5715 251.463 72.5655C251.906 72.5595 252.241 72.5633 252.469 72.5771L252.63 76.6649C252.492 76.6362 252.178 76.5973 251.687 76.5484C251.207 76.4876 250.7 76.4677 250.166 76.4886C248.895 76.5386 247.77 76.85 246.791 77.4228C245.824 77.9839 245.069 78.7414 244.527 79.6952C243.995 80.6373 243.752 81.6987 243.799 82.8796L244.448 99.4351L240.429 99.5928ZM267.408 99.0799C265.046 99.1726 262.952 98.6918 261.125 97.6377C259.31 96.583 257.863 95.0648 256.784 93.0828C255.717 91.1004 255.13 88.758 255.024 86.0555C254.917 83.3303 255.318 80.9321 256.226 78.8608C257.145 76.7891 258.469 75.1564 260.196 73.9627C261.935 72.7686 263.985 72.1252 266.347 72.0325C268.709 71.9398 270.797 72.4208 272.613 73.4754C274.439 74.5296 275.887 76.0536 276.954 78.0473C278.033 80.0406 278.626 82.3999 278.733 85.125C278.839 87.8275 278.432 90.2089 277.512 92.2693C276.604 94.3293 275.28 95.9563 273.542 97.1504C271.815 98.344 269.77 98.9872 267.408 99.0799ZM267.266 95.469C269.061 95.3986 270.519 94.8808 271.641 93.9156C272.763 92.9504 273.573 91.7075 274.07 90.1868C274.568 88.6661 274.782 87.0314 274.714 85.2828C274.645 83.5341 274.303 81.9156 273.687 80.4273C273.072 78.9389 272.166 77.7519 270.972 76.8662C269.777 75.9806 268.282 75.573 266.488 75.6434C264.694 75.7138 263.236 76.2373 262.115 77.2138C260.993 78.1904 260.184 79.4447 259.687 80.9767C259.19 82.5088 258.975 84.1491 259.044 85.8978C259.113 87.6464 259.454 89.2592 260.07 90.7363C260.685 92.2133 261.59 93.3889 262.784 94.2632C263.978 95.1375 265.472 95.5394 267.266 95.469ZM284.658 97.8571L283.631 71.6954L287.514 71.543L287.675 75.6307L288.015 75.6174C288.506 74.1993 289.343 73.0804 290.528 72.2606C291.712 71.4294 293.156 70.9804 294.859 70.9136C296.585 70.8458 298.037 71.1812 299.214 71.9197C300.403 72.6464 301.348 73.6953 302.05 75.0666L302.323 75.0559C302.94 73.6784 303.902 72.5659 305.211 71.7185C306.519 70.8597 308.11 70.3935 309.984 70.32C312.323 70.2282 314.265 70.8855 315.81 72.2919C317.354 73.687 318.187 75.9231 318.308 79.0002L318.995 96.5095L314.975 96.6672L314.288 79.158C314.212 77.2277 313.63 75.8688 312.542 75.0813C311.453 74.2938 310.194 73.9282 308.763 73.9843C306.923 74.0565 305.52 74.6688 304.553 75.8213C303.586 76.9624 303.135 78.3788 303.202 80.0707L303.87 97.1031L299.782 97.2635L299.079 79.3455C299.021 77.858 298.491 76.679 297.49 75.8085C296.489 74.9266 295.228 74.5155 293.706 74.5752C292.662 74.6162 291.696 74.9327 290.809 75.5248C289.934 76.1164 289.238 76.917 288.72 77.9267C288.214 78.9246 287.985 80.0652 288.036 81.3483L288.677 97.6993L284.658 97.8571ZM336.275 96.3772C333.913 96.4699 331.818 95.9892 329.992 94.935C328.176 93.8804 326.729 92.3621 325.65 90.3802C324.583 88.3977 323.997 86.0553 323.891 83.3528C323.784 80.6277 324.184 78.2294 325.092 76.1581C326.012 74.0864 327.335 72.4537 329.062 71.2601C330.801 70.066 332.851 69.4226 335.213 69.3299C337.575 69.2372 339.664 69.7181 341.479 70.7728C343.306 71.8269 344.753 73.3509 345.821 75.3447C346.9 77.338 347.493 79.6972 347.6 82.4224C347.706 85.1249 347.299 87.5063 346.379 89.5667C345.47 91.6266 344.147 93.2536 342.408 94.4477C340.681 95.6414 338.636 96.2845 336.275 96.3772ZM336.133 92.7664C337.927 92.696 339.385 92.1782 340.507 91.213C341.629 90.2478 342.439 89.0048 342.937 87.4841C343.434 85.9635 343.649 84.3288 343.58 82.5801C343.511 80.8315 343.169 79.213 342.554 77.7246C341.938 76.2362 341.033 75.0492 339.838 74.1636C338.643 73.2779 337.149 72.8703 335.355 72.9407C333.561 73.0111 332.103 73.5346 330.981 74.5112C329.859 75.4877 329.05 76.742 328.553 78.2741C328.056 79.8061 327.842 81.4464 327.91 83.1951C327.979 84.9438 328.321 86.5566 328.936 88.0336C329.551 89.5106 330.456 90.6863 331.65 91.5606C332.845 92.4348 334.339 92.8368 336.133 92.7664ZM363.875 68.5462L364.009 71.9527L350.451 72.4848L350.317 69.0783L363.875 68.5462ZM354.023 62.6553L358.042 62.4976L359.021 87.4329C359.066 88.5684 359.264 89.4135 359.615 89.9684C359.978 90.5114 360.424 90.8692 360.954 91.0417C361.495 91.2024 362.06 91.2712 362.651 91.248C363.093 91.2307 363.456 91.1937 363.738 91.1371C364.02 91.0692 364.245 91.0149 364.414 90.9741L365.373 94.5529C365.105 94.6658 364.728 94.7829 364.244 94.9043C363.76 95.037 363.144 95.1181 362.394 95.1475C361.259 95.192 360.136 94.9916 359.027 94.5461C357.929 94.1002 357.003 93.3916 356.249 92.4205C355.505 91.4489 355.104 90.2023 355.044 88.6807L354.023 62.6553ZM370.229 94.4988L369.202 68.3372L373.222 68.1794L374.248 94.3411L370.229 94.4988ZM371.075 63.8967C370.291 63.9274 369.605 63.6871 369.017 63.1757C368.439 62.6638 368.136 62.0332 368.106 61.2838C368.077 60.5344 368.33 59.8819 368.865 59.3264C369.412 58.7704 370.077 58.4771 370.861 58.4463C371.644 58.4156 372.325 58.6561 372.902 59.168C373.491 59.6794 373.8 60.3098 373.829 61.0592C373.859 61.8086 373.6 62.4613 373.053 63.0173C372.518 63.5728 371.858 63.8659 371.075 63.8967ZM391.541 94.2083C389.179 94.301 387.085 93.8203 385.258 92.7661C383.442 91.7115 381.995 90.1932 380.917 88.2112C379.85 86.2288 379.263 83.8864 379.157 81.1839C379.05 78.4588 379.45 76.0605 380.359 73.9892C381.278 71.9175 382.601 70.2848 384.329 69.0911C386.067 67.897 388.117 67.2536 390.479 67.161C392.841 67.0683 394.93 67.5492 396.745 68.6038C398.572 69.658 400.019 71.182 401.087 73.1757C402.166 75.1691 402.759 77.5283 402.866 80.2535C402.972 82.9559 402.565 85.3374 401.645 87.3977C400.737 89.4577 399.413 91.0847 397.674 92.2788C395.947 93.4725 393.903 94.1156 391.541 94.2083ZM391.399 90.5975C393.193 90.5271 394.651 90.0092 395.773 89.044C396.895 88.0788 397.705 86.8359 398.203 85.3152C398.7 83.7945 398.915 82.1599 398.846 80.4112C398.778 78.6626 398.435 77.0441 397.82 75.5557C397.204 74.0673 396.299 72.8803 395.104 71.9947C393.909 71.109 392.415 70.7014 390.621 70.7718C388.827 70.8422 387.369 71.3657 386.247 72.3423C385.126 73.3188 384.316 74.5731 383.819 76.1051C383.322 77.6372 383.108 79.2775 383.176 81.0262C383.245 82.7748 383.587 84.3877 384.202 85.8647C384.817 87.3417 385.722 88.5173 386.916 89.3916C388.111 90.2659 389.605 90.6679 391.399 90.5975ZM412.192 77.0898L412.81 92.8277L408.79 92.9855L407.764 66.8238L411.647 66.6714L411.807 70.7592L412.148 70.7458C412.709 69.3932 413.598 68.2893 414.816 67.4341C416.033 66.5675 417.629 66.0955 419.605 66.0179C421.376 65.9484 422.94 66.2509 424.297 66.9255C425.654 67.5887 426.73 68.6383 427.526 70.0741C428.321 71.4985 428.762 73.3235 428.849 75.5491L429.502 92.1727L425.482 92.3304L424.84 75.9794C424.76 73.9241 424.163 72.344 423.051 71.2391C421.938 70.1228 420.45 69.6012 418.588 69.6742C417.305 69.7246 416.169 70.0478 415.18 70.6438C414.203 71.2395 413.446 72.0823 412.909 73.1724C412.371 74.2625 412.133 75.5683 412.192 77.0898ZM453.862 70.8828L450.291 72.0465C450.04 71.4536 449.682 70.882 449.217 70.3316C448.763 69.7694 448.154 69.3157 447.39 68.9704C446.626 68.6251 445.659 68.4754 444.489 68.5213C442.888 68.5841 441.569 69.0055 440.53 69.7855C439.503 70.5536 439.011 71.4998 439.055 72.6239C439.094 73.6231 439.489 74.398 440.238 74.9486C440.987 75.4992 442.142 75.9372 443.701 76.2627L447.622 77.0641C449.984 77.54 451.761 78.3403 452.953 79.4648C454.146 80.578 454.778 82.0487 454.849 83.8768C454.908 85.3757 454.529 86.7325 453.713 87.9473C452.907 89.1616 451.752 90.1395 450.246 90.8809C448.739 91.6224 446.97 92.033 444.937 92.1128C442.269 92.2175 440.038 91.7251 438.244 90.6355C436.45 89.5459 435.276 87.8975 434.723 85.6902L438.501 84.5867C438.92 85.9804 439.648 87.0094 440.686 87.6738C441.736 88.3377 443.084 88.6373 444.73 88.5727C446.604 88.4992 448.076 88.0434 449.146 87.2053C450.227 86.3554 450.746 85.3684 450.702 84.2443C450.666 83.3359 450.318 82.5876 449.658 81.9994C448.998 81.3998 448.003 80.9726 446.674 80.7177L442.273 79.8669C439.855 79.3932 438.061 78.5823 436.89 77.4341C435.73 76.2742 435.114 74.7915 435.043 72.986C434.986 71.5099 435.349 70.1878 436.133 69.0198C436.929 67.8513 438.035 66.9152 439.452 66.2114C440.88 65.5071 442.513 65.1189 444.353 65.0467C446.942 64.9451 448.997 65.4331 450.517 66.5106C452.049 67.5877 453.164 69.0451 453.862 70.8828Z" fill="black"/>
<path d="M488.839 55.8178L494.018 67.9239L506.493 72.1381L494.387 77.317L490.173 89.7917L484.994 77.6856L472.519 73.4714L484.625 68.2926L488.839 55.8178Z" fill="#F07B6E"/>
<path d="M525.003 53.4887L530.045 53.2909L543.036 81.7806L543.444 81.7646L554.163 52.3444L559.204 52.1465L560.573 87.0288L556.622 87.1839L555.581 60.6815L555.241 60.6949L545.38 87.625L541.565 87.7747L529.624 61.7002L529.284 61.7136L530.324 88.2159L526.372 88.371L525.003 53.4887ZM578.427 86.874C576.066 86.9666 573.971 86.4859 572.145 85.4317C570.329 84.3771 568.882 82.8588 567.803 80.8769C566.736 78.8945 566.15 76.552 566.044 73.8496C565.937 71.1244 566.337 68.7262 567.245 66.6549C568.165 64.5831 569.488 62.9504 571.215 61.7568C572.954 60.5627 575.004 59.9193 577.366 59.8266C579.728 59.7339 581.816 60.2149 583.632 61.2695C585.459 62.3237 586.906 63.8476 587.974 65.8414C589.053 67.8347 589.646 70.1939 589.753 72.9191C589.859 75.6216 589.452 78.003 588.532 80.0634C587.623 82.1233 586.3 83.7503 584.561 84.9444C582.834 86.1381 580.789 86.7813 578.427 86.874ZM578.286 83.2631C580.08 83.1927 581.538 82.6749 582.66 81.7097C583.782 80.7445 584.592 79.5015 585.09 77.9809C585.587 76.4602 585.802 74.8255 585.733 73.0769C585.664 71.3282 585.322 69.7097 584.707 68.2213C584.091 66.733 583.186 65.546 581.991 64.6603C580.796 63.7747 579.302 63.367 577.508 63.4374C575.714 63.5079 574.256 64.0313 573.134 65.0079C572.012 65.9844 571.203 67.2387 570.706 68.7708C570.209 70.3028 569.995 71.9432 570.063 73.6918C570.132 75.4405 570.474 77.0533 571.089 78.5303C571.704 80.0073 572.609 81.183 573.803 82.0573C574.998 82.9316 576.492 83.3335 578.286 83.2631ZM615.106 58.6867L606.459 85.228L602.371 85.3884L591.67 59.6064L596.03 59.4353L604.07 79.9995L604.342 79.9888L610.746 58.8578L615.106 58.6867ZM620.719 84.6684L619.692 58.5067L623.712 58.3489L624.739 84.5106L620.719 84.6684ZM621.565 54.0662C620.782 54.0969 620.096 53.8566 619.507 53.3452C618.929 52.8334 618.626 52.2027 618.597 51.4533C618.567 50.7039 618.82 50.0514 619.356 49.4959C619.903 48.9399 620.568 48.6466 621.351 48.6158C622.135 48.5851 622.815 48.8256 623.392 49.3375C623.981 49.8489 624.29 50.4793 624.32 51.2287C624.349 51.9781 624.09 52.6308 623.543 53.1868C623.008 53.7423 622.349 54.0354 621.565 54.0662ZM642.372 84.3645C639.851 84.4634 637.655 83.9923 635.783 82.9513C633.922 81.8985 632.458 80.3865 631.391 78.4155C630.335 76.4326 629.755 74.1013 629.65 71.4216C629.545 68.7418 629.94 66.3608 630.837 64.2786C631.744 62.1846 633.055 60.5297 634.77 59.3138C636.496 58.086 638.54 57.4258 640.901 57.3331C642.264 57.2797 643.618 57.454 644.965 57.856C646.311 58.2581 647.549 58.9487 648.68 59.9279C649.809 60.8957 650.731 62.2014 651.443 63.8452C652.156 65.489 652.56 67.5315 652.656 69.9728L652.723 71.6761L632.557 72.4675L632.42 68.9929L648.499 68.3619C648.441 66.8857 648.094 65.5802 647.458 64.4451C646.834 63.3097 645.969 62.4281 644.864 61.8005C643.77 61.1725 642.497 60.887 641.043 60.944C639.442 61.0068 638.072 61.4586 636.934 62.2994C635.807 63.1283 634.955 64.1852 634.38 65.4701C633.805 66.755 633.546 68.1185 633.603 69.5606L633.693 71.877C633.771 73.8527 634.177 75.5142 634.913 76.8614C635.659 78.1968 636.659 79.1982 637.913 79.8654C639.167 80.5213 640.606 80.8173 642.23 80.7536C643.286 80.7122 644.234 80.5271 645.074 80.1985C645.925 79.858 646.651 79.3746 647.252 78.7483C647.852 78.1106 648.305 77.3309 648.61 76.4092L652.536 77.3468C652.179 78.68 651.538 79.8652 650.612 80.9023C649.685 81.9281 648.523 82.747 647.126 83.3591C645.728 83.9598 644.143 84.295 642.372 84.3645ZM671.893 82.66L670.524 47.7778L682.311 47.3152C685.047 47.2078 687.303 47.614 689.08 48.5337C690.867 49.4416 692.213 50.7136 693.119 52.3498C694.024 53.986 694.518 55.8317 694.598 57.887C694.679 59.9422 694.332 61.8266 693.558 63.5401C692.795 65.2531 691.564 66.6433 689.866 67.7108C688.168 68.7668 685.962 69.3481 683.248 69.4546L674.8 69.7861L674.653 66.039L682.964 65.7128C684.838 65.6393 686.33 65.2566 687.44 64.5649C688.55 63.8731 689.339 62.9664 689.807 61.8449C690.285 60.7117 690.497 59.4467 690.442 58.0501C690.388 56.6534 690.077 55.4146 689.512 54.3337C688.958 53.2523 688.095 52.4219 686.924 51.8424C685.752 51.2515 684.218 50.9933 682.321 51.0677L674.895 51.3591L676.117 82.4943L671.893 82.66ZM701.074 81.5148L700.047 55.3531L703.931 55.2007L704.086 59.1522L704.358 59.1415C704.784 57.8284 705.606 56.7442 706.824 55.889C708.041 55.0337 709.433 54.5754 711 54.5139C711.295 54.5023 711.665 54.4935 712.108 54.4875C712.551 54.4815 712.887 54.4853 713.115 54.4991L713.275 58.5869C713.138 58.5582 712.823 58.5193 712.332 58.4704C711.852 58.4096 711.346 58.3897 710.812 58.4106C709.54 58.4605 708.415 58.772 707.437 59.3448C706.469 59.9059 705.714 60.6634 705.172 61.6172C704.64 62.5593 704.398 63.6207 704.444 64.8016L705.094 81.3571L701.074 81.5148ZM728.054 81.0019C725.692 81.0946 723.597 80.6138 721.771 79.5597C719.955 78.505 718.508 76.9868 717.43 75.0048C716.362 73.0224 715.776 70.68 715.67 67.9775C715.563 65.2523 715.963 62.8541 716.871 60.7828C717.791 58.7111 719.114 57.0784 720.841 55.8847C722.58 54.6906 724.63 54.0472 726.992 53.9545C729.354 53.8618 731.443 54.3428 733.258 55.3974C735.085 56.4516 736.532 57.9756 737.6 59.9693C738.679 61.9626 739.272 64.3219 739.379 67.047C739.485 69.7495 739.078 72.1309 738.158 74.1913C737.249 76.2513 735.926 77.8783 734.187 79.0724C732.46 80.266 730.415 80.9092 728.054 81.0019ZM727.912 77.391C729.706 77.3206 731.164 76.8028 732.286 75.8376C733.408 74.8724 734.218 73.6295 734.716 72.1088C735.213 70.5881 735.428 68.9534 735.359 67.2048C735.29 65.4561 734.948 63.8376 734.333 62.3493C733.717 60.8609 732.812 59.6739 731.617 58.7882C730.422 57.9026 728.928 57.495 727.134 57.5654C725.34 57.6358 723.882 58.1593 722.76 59.1358C721.639 60.1124 720.829 61.3667 720.332 62.8987C719.835 64.4308 719.621 66.0711 719.689 67.8198C719.758 69.5684 720.1 71.1812 720.715 72.6582C721.33 74.1353 722.235 75.3109 723.429 76.1852C724.624 77.0595 726.118 77.4614 727.912 77.391ZM745.303 79.7791L744.276 53.6174L748.16 53.465L748.32 57.5527L748.661 57.5394C749.151 56.1213 749.989 55.0024 751.173 54.1826C752.357 53.3514 753.801 52.9024 755.504 52.8356C757.23 52.7678 758.682 53.1032 759.86 53.8417C761.048 54.5684 761.993 55.6173 762.696 56.9886L762.968 56.9779C763.585 55.6004 764.548 54.4879 765.856 53.6405C767.165 52.7817 768.756 52.3155 770.629 52.242C772.968 52.1502 774.91 52.8075 776.455 54.2139C778 55.609 778.832 57.8451 778.953 60.9222L779.64 78.4315L775.621 78.5892L774.934 61.08C774.858 59.1497 774.276 57.7908 773.187 57.0033C772.099 56.2158 770.839 55.8502 769.408 55.9063C767.569 55.9785 766.166 56.5908 765.199 57.7433C764.231 58.8844 763.781 60.3008 763.847 61.9927L764.516 79.0251L760.428 79.1855L759.725 61.2675C759.666 59.78 759.137 58.601 758.136 57.7305C757.135 56.8486 755.873 56.4375 754.352 56.4972C753.307 56.5382 752.341 56.8547 751.455 57.4468C750.58 58.0384 749.883 58.839 749.366 59.8487C748.859 60.8466 748.631 61.9872 748.681 63.2703L749.323 79.6213L745.303 79.7791ZM796.92 78.2992C794.558 78.3919 792.464 77.9112 790.637 76.857C788.821 75.8024 787.374 74.2841 786.296 72.3021C785.229 70.3197 784.642 67.9773 784.536 65.2748C784.429 62.5497 784.83 60.1514 785.738 58.0801C786.657 56.0084 787.981 54.3757 789.708 53.1821C791.446 51.988 793.497 51.3446 795.858 51.2519C798.22 51.1592 800.309 51.6401 802.124 52.6948C803.951 53.7489 805.398 55.2729 806.466 57.2667C807.545 59.26 808.138 61.6192 808.245 64.3444C808.351 67.0469 807.944 69.4283 807.024 71.4887C806.116 73.5486 804.792 75.1756 803.054 76.3697C801.326 77.5634 799.282 78.2065 796.92 78.2992ZM796.778 74.6884C798.572 74.618 800.03 74.1002 801.152 73.135C802.275 72.1698 803.084 70.9268 803.582 69.4061C804.08 67.8855 804.294 66.2508 804.225 64.5021C804.157 62.7535 803.815 61.135 803.199 59.6466C802.583 58.1582 801.678 56.9712 800.483 56.0856C799.289 55.1999 797.794 54.7923 796 54.8627C794.206 54.9331 792.748 55.4566 791.627 56.4332C790.505 57.4097 789.696 58.664 789.198 60.1961C788.701 61.7281 788.487 63.3684 788.556 65.1171C788.624 66.8657 788.966 68.4786 789.581 69.9556C790.197 71.4326 791.101 72.6083 792.296 73.4825C793.49 74.3568 794.984 74.7588 796.778 74.6884ZM824.52 50.4682L824.654 53.8747L811.096 54.4067L810.963 51.0003L824.52 50.4682ZM814.668 44.5773L818.688 44.4196L819.666 69.3549C819.711 70.4904 819.909 71.3355 820.261 71.8904C820.623 72.4334 821.069 72.7912 821.599 72.9637C822.14 73.1244 822.706 73.1932 823.296 73.17C823.739 73.1527 824.101 73.1157 824.383 73.0591C824.665 72.9912 824.89 72.9369 825.059 72.8961L826.019 76.4749C825.75 76.5878 825.374 76.7049 824.89 76.8263C824.406 76.959 823.789 77.0401 823.04 77.0695C821.904 77.114 820.782 76.9136 819.673 76.4681C818.575 76.0222 817.648 75.3136 816.894 74.3425C816.151 73.3709 815.749 72.1243 815.69 70.6027L814.668 44.5773ZM830.874 76.4208L829.847 50.2591L833.867 50.1014L834.894 76.2631L830.874 76.4208ZM831.72 45.8187C830.937 45.8494 830.251 45.6091 829.662 45.0977C829.085 44.5858 828.781 43.9552 828.752 43.2058C828.722 42.4564 828.975 41.8039 829.511 41.2484C830.058 40.6924 830.723 40.3991 831.506 40.3683C832.29 40.3376 832.97 40.5781 833.548 41.09C834.136 41.6014 834.445 42.2318 834.475 42.9812C834.504 43.7306 834.245 44.3833 833.699 44.9393C833.163 45.4948 832.504 45.7879 831.72 45.8187ZM852.186 76.1303C849.824 76.223 847.73 75.7423 845.903 74.6881C844.088 73.6335 842.641 72.1152 841.562 70.1332C840.495 68.1508 839.908 65.8084 839.802 63.1059C839.695 60.3808 840.096 57.9825 841.004 55.9112C841.923 53.8395 843.247 52.2068 844.974 51.0131C846.713 49.819 848.763 49.1756 851.125 49.083C853.486 48.9903 855.575 49.4712 857.391 50.5258C859.217 51.58 860.665 53.104 861.732 55.0977C862.811 57.091 863.404 59.4503 863.511 62.1755C863.617 64.8779 863.21 67.2594 862.29 69.3197C861.382 71.3797 860.058 73.0067 858.32 74.2008C856.592 75.3945 854.548 76.0376 852.186 76.1303ZM852.044 72.5195C853.839 72.449 855.297 71.9312 856.419 70.966C857.541 70.0008 858.351 68.7579 858.848 67.2372C859.346 65.7165 859.56 64.0819 859.492 62.3332C859.423 60.5846 859.081 58.9661 858.465 57.4777C857.85 55.9893 856.944 54.8023 855.75 53.9167C854.555 53.031 853.06 52.6234 851.266 52.6938C849.472 52.7642 848.014 53.2877 846.893 54.2643C845.771 55.2408 844.962 56.4951 844.465 58.0271C843.967 59.5592 843.753 61.1995 843.822 62.9482C843.89 64.6968 844.232 66.3097 844.848 67.7867C845.463 69.2637 846.368 70.4393 847.562 71.3136C848.756 72.1879 850.25 72.5899 852.044 72.5195ZM872.838 59.0118L873.455 74.7497L869.436 74.9075L868.409 48.7458L872.292 48.5934L872.453 52.6812L872.793 52.6678C873.354 51.3152 874.244 50.2113 875.461 49.3561C876.678 48.4895 878.274 48.0175 880.25 47.9399C882.022 47.8704 883.586 48.1729 884.943 48.8475C886.299 49.5107 887.375 50.5603 888.171 51.9961C888.966 53.4205 889.407 55.2455 889.495 57.4711L890.147 74.0947L886.127 74.2524L885.486 57.9014C885.405 55.8461 884.809 54.266 883.696 53.1611C882.583 52.0448 881.096 51.5232 879.234 51.5962C877.951 51.6466 876.815 51.9698 875.826 52.5658C874.848 53.1614 874.091 54.0043 873.554 55.0944C873.017 56.1845 872.778 57.4903 872.838 59.0118ZM914.507 52.8048L910.936 53.9685C910.686 53.3756 910.328 52.8039 909.863 52.2536C909.408 51.6914 908.799 51.2377 908.035 50.8924C907.271 50.5471 906.304 50.3974 905.135 50.4433C903.534 50.5061 902.214 50.9275 901.176 51.7075C900.148 52.4756 899.656 53.4218 899.7 54.5459C899.74 55.5451 900.134 56.32 900.883 56.8706C901.633 57.4212 902.787 57.8592 904.347 58.1847L908.268 58.9861C910.629 59.462 912.406 60.2623 913.599 61.3868C914.791 62.5 915.423 63.9707 915.495 65.7988C915.554 67.2977 915.175 68.6545 914.358 69.8693C913.553 71.0836 912.397 72.0615 910.891 72.8029C909.385 73.5444 907.615 73.955 905.583 74.0348C902.914 74.1395 900.683 73.6471 898.889 72.5575C897.095 71.4679 895.922 69.8195 895.369 67.6122L899.146 66.5086C899.565 67.9024 900.293 68.9314 901.332 69.5958C902.381 70.2597 903.729 70.5593 905.376 70.4947C907.249 70.4212 908.721 69.9654 909.791 69.1273C910.873 68.2774 911.391 67.2904 911.347 66.1663C911.311 65.2579 910.963 64.5096 910.304 63.9214C909.643 63.3218 908.648 62.8946 907.319 62.6397L902.919 61.7889C900.501 61.3152 898.706 60.5043 897.535 59.3561C896.375 58.1962 895.76 56.7135 895.689 54.908C895.631 53.4319 895.994 52.1098 896.778 50.9418C897.574 49.7733 898.68 48.8372 900.097 48.1334C901.525 47.4291 903.159 47.0409 904.998 46.9687C907.587 46.8671 909.642 47.3551 911.163 48.4326C912.695 49.5097 913.81 50.9671 914.507 52.8048Z" fill="black"/>
<path d="M949.485 37.7398L954.664 49.8459L967.138 54.0601L955.032 59.239L950.818 71.7137L945.639 59.6076L933.165 55.3934L945.271 50.2146L949.485 37.7398Z" fill="#F07B6E"/>
<path d="M985.649 35.4107L990.69 35.2129L1003.68 63.7026L1004.09 63.6866L1014.81 34.2664L1019.85 34.0685L1021.22 68.9508L1017.27 69.1058L1016.23 42.6035L1015.89 42.6169L1006.03 69.547L1002.21 69.6967L990.27 43.6222L989.929 43.6356L990.969 70.1379L987.018 70.293L985.649 35.4107ZM1039.07 68.796C1036.71 68.8886 1034.62 68.4079 1032.79 67.3537C1030.97 66.2991 1029.53 64.7808 1028.45 62.7989C1027.38 60.8165 1026.8 58.474 1026.69 55.7716C1026.58 53.0464 1026.98 50.6482 1027.89 48.5769C1028.81 46.5051 1030.13 44.8724 1031.86 43.6788C1033.6 42.4847 1035.65 41.8413 1038.01 41.7486C1040.37 41.6559 1042.46 42.1369 1044.28 43.1915C1046.1 44.2457 1047.55 45.7696 1048.62 47.7634C1049.7 49.7567 1050.29 52.1159 1050.4 54.8411C1050.5 57.5436 1050.1 59.925 1049.18 61.9854C1048.27 64.0453 1046.95 65.6723 1045.21 66.8664C1043.48 68.0601 1041.43 68.7033 1039.07 68.796ZM1038.93 65.1851C1040.73 65.1147 1042.18 64.5969 1043.31 63.6317C1044.43 62.6665 1045.24 61.4235 1045.73 59.9029C1046.23 58.3822 1046.45 56.7475 1046.38 54.9989C1046.31 53.2502 1045.97 51.6317 1045.35 50.1433C1044.74 48.655 1043.83 47.468 1042.64 46.5823C1041.44 45.6967 1039.95 45.289 1038.15 45.3594C1036.36 45.4299 1034.9 45.9533 1033.78 46.9299C1032.66 47.9064 1031.85 49.1607 1031.35 50.6928C1030.85 52.2248 1030.64 53.8652 1030.71 55.6138C1030.78 57.3625 1031.12 58.9753 1031.73 60.4523C1032.35 61.9293 1033.25 63.105 1034.45 63.9793C1035.64 64.8536 1037.14 65.2555 1038.93 65.1851ZM1075.75 40.6086L1067.1 67.15L1063.02 67.3104L1052.32 41.5284L1056.68 41.3573L1064.72 61.9215L1064.99 61.9108L1071.39 40.7798L1075.75 40.6086ZM1081.36 66.5903L1080.34 40.4287L1084.36 40.2709L1085.38 66.4326L1081.36 66.5903ZM1082.21 35.9882C1081.43 36.0189 1080.74 35.7786 1080.15 35.2672C1079.57 34.7554 1079.27 34.1247 1079.24 33.3753C1079.21 32.6259 1079.47 31.9734 1080 31.4179C1080.55 30.8619 1081.21 30.5686 1082 30.5378C1082.78 30.5071 1083.46 30.7476 1084.04 31.2595C1084.63 31.7709 1084.94 32.4013 1084.96 33.1507C1084.99 33.9001 1084.74 34.5528 1084.19 35.1088C1083.65 35.6643 1082.99 35.9574 1082.21 35.9882ZM1103.02 66.2865C1100.5 66.3854 1098.3 65.9143 1096.43 64.8733C1094.57 63.8205 1093.1 62.3085 1092.04 60.3375C1090.98 58.3546 1090.4 56.0233 1090.3 53.3436C1090.19 50.6638 1090.59 48.2828 1091.48 46.2006C1092.39 44.1066 1093.7 42.4517 1095.42 41.2358C1097.14 40.008 1099.19 39.3478 1101.55 39.2551C1102.91 39.2017 1104.26 39.376 1105.61 39.778C1106.96 40.1801 1108.19 40.8707 1109.33 41.8499C1110.45 42.8177 1111.38 44.1234 1112.09 45.7672C1112.8 47.411 1113.21 49.4535 1113.3 51.8948L1113.37 53.5981L1093.2 54.3895L1093.07 50.9149L1109.14 50.2839C1109.09 48.8077 1108.74 47.5022 1108.1 46.3671C1107.48 45.2317 1106.61 44.3501 1105.51 43.7225C1104.42 43.0945 1103.14 42.809 1101.69 42.866C1100.09 42.9288 1098.72 43.3806 1097.58 44.2214C1096.45 45.0503 1095.6 46.1072 1095.03 47.3921C1094.45 48.677 1094.19 50.0405 1094.25 51.4826L1094.34 53.799C1094.42 55.7747 1094.82 57.4362 1095.56 58.7834C1096.3 60.1188 1097.3 61.1201 1098.56 61.7874C1099.81 62.4433 1101.25 62.7393 1102.88 62.6756C1103.93 62.6342 1104.88 62.4491 1105.72 62.1205C1106.57 61.78 1107.3 61.2966 1107.9 60.6703C1108.5 60.0326 1108.95 59.2529 1109.26 58.3312L1113.18 59.2688C1112.82 60.602 1112.18 61.7872 1111.26 62.8243C1110.33 63.8501 1109.17 64.669 1107.77 65.2811C1106.37 65.8818 1104.79 66.2169 1103.02 66.2865ZM1132.54 64.582L1131.17 29.6998L1142.96 29.2372C1145.69 29.1298 1147.95 29.536 1149.72 30.4557C1151.51 31.3636 1152.86 32.6356 1153.76 34.2718C1154.67 35.908 1155.16 37.7537 1155.24 39.809C1155.32 41.8642 1154.98 43.7486 1154.2 45.4621C1153.44 47.1751 1152.21 48.5653 1150.51 49.6328C1148.81 50.6888 1146.61 51.2701 1143.89 51.3766L1135.45 51.7081L1135.3 47.961L1143.61 47.6348C1145.48 47.5613 1146.98 47.1786 1148.09 46.4869C1149.2 45.7951 1149.98 44.8884 1150.45 43.7669C1150.93 42.6337 1151.14 41.3687 1151.09 39.9721C1151.03 38.5754 1150.72 37.3366 1150.16 36.2557C1149.6 35.1743 1148.74 34.3439 1147.57 33.7644C1146.4 33.1735 1144.86 32.9153 1142.97 32.9897L1135.54 33.2811L1136.76 64.4162L1132.54 64.582ZM1161.72 63.4368L1160.69 37.2751L1164.58 37.1227L1164.73 41.0742L1165 41.0635C1165.43 39.7504 1166.25 38.6662 1167.47 37.811C1168.69 36.9557 1170.08 36.4974 1171.65 36.4359C1171.94 36.4243 1172.31 36.4155 1172.75 36.4095C1173.2 36.4035 1173.53 36.4073 1173.76 36.4211L1173.92 40.5089C1173.78 40.4802 1173.47 40.4413 1172.98 40.3924C1172.5 40.3316 1171.99 40.3117 1171.46 40.3326C1170.19 40.3825 1169.06 40.6939 1168.08 41.2668C1167.11 41.8279 1166.36 42.5854 1165.82 43.5392C1165.29 44.4813 1165.04 45.5427 1165.09 46.7236L1165.74 63.2791L1161.72 63.4368ZM1188.7 62.9239C1186.34 63.0166 1184.24 62.5358 1182.42 61.4817C1180.6 60.427 1179.15 58.9088 1178.07 56.9268C1177.01 54.9444 1176.42 52.602 1176.32 49.8995C1176.21 47.1743 1176.61 44.7761 1177.52 42.7048C1178.44 40.6331 1179.76 39.0004 1181.49 37.8067C1183.23 36.6126 1185.28 35.9692 1187.64 35.8765C1190 35.7838 1192.09 36.2648 1193.9 37.3194C1195.73 38.3736 1197.18 39.8976 1198.25 41.8913C1199.32 43.8846 1199.92 46.2439 1200.02 48.969C1200.13 51.6715 1199.72 54.0529 1198.8 56.1133C1197.89 58.1733 1196.57 59.8003 1194.83 60.9944C1193.11 62.188 1191.06 62.8312 1188.7 62.9239ZM1188.56 59.313C1190.35 59.2426 1191.81 58.7248 1192.93 57.7596C1194.05 56.7944 1194.86 55.5515 1195.36 54.0308C1195.86 52.5101 1196.07 50.8754 1196 49.1268C1195.94 47.3781 1195.59 45.7596 1194.98 44.2713C1194.36 42.7829 1193.46 41.5959 1192.26 40.7102C1191.07 39.8246 1189.57 39.417 1187.78 39.4874C1185.99 39.5578 1184.53 40.0813 1183.41 41.0578C1182.28 42.0344 1181.47 43.2887 1180.98 44.8207C1180.48 46.3527 1180.27 47.9931 1180.33 49.7417C1180.4 51.4904 1180.75 53.1032 1181.36 54.5802C1181.98 56.0573 1182.88 57.2329 1184.07 58.1072C1185.27 58.9815 1186.76 59.3834 1188.56 59.313ZM1205.95 61.7011L1204.92 35.5394L1208.81 35.387L1208.97 39.4747L1209.31 39.4614C1209.8 38.0433 1210.63 36.9244 1211.82 36.1046C1213 35.2734 1214.45 34.8244 1216.15 34.7576C1217.88 34.6898 1219.33 35.0252 1220.51 35.7637C1221.69 36.4904 1222.64 37.5393 1223.34 38.9106L1223.61 38.8999C1224.23 37.5224 1225.19 36.4099 1226.5 35.5625C1227.81 34.7037 1229.4 34.2375 1231.27 34.164C1233.61 34.0722 1235.56 34.7295 1237.1 36.1359C1238.65 37.531 1239.48 39.7671 1239.6 42.8442L1240.29 60.3535L1236.27 60.5112L1235.58 43.002C1235.5 41.0717 1234.92 39.7128 1233.83 38.9253C1232.74 38.1378 1231.48 37.7722 1230.05 37.8283C1228.21 37.9005 1226.81 38.5128 1225.84 39.6653C1224.88 40.8064 1224.43 42.2228 1224.49 43.9147L1225.16 60.9471L1221.07 61.1075L1220.37 43.1895C1220.31 41.702 1219.78 40.523 1218.78 39.6525C1217.78 38.7706 1216.52 38.3595 1215 38.4192C1213.95 38.4602 1212.99 38.7767 1212.1 39.3688C1211.23 39.9604 1210.53 40.761 1210.01 41.7707C1209.5 42.7686 1209.28 43.9091 1209.33 45.1923L1209.97 61.5433L1205.95 61.7011ZM1257.57 60.2212C1255.2 60.3139 1253.11 59.8332 1251.28 58.779C1249.47 57.7244 1248.02 56.2061 1246.94 54.2241C1245.87 52.2417 1245.29 49.8993 1245.18 47.1968C1245.07 44.4717 1245.48 42.0734 1246.38 40.0021C1247.3 37.9304 1248.63 36.2977 1250.35 35.104C1252.09 33.91 1254.14 33.2666 1256.5 33.1739C1258.87 33.0812 1260.95 33.5621 1262.77 34.6168C1264.6 35.6709 1266.04 37.1949 1267.11 39.1887C1268.19 41.182 1268.78 43.5412 1268.89 46.2664C1269 48.9688 1268.59 51.3503 1267.67 53.4107C1266.76 55.4706 1265.44 57.0976 1263.7 58.2917C1261.97 59.4854 1259.93 60.1285 1257.57 60.2212ZM1257.42 56.6104C1259.22 56.54 1260.68 56.0222 1261.8 55.057C1262.92 54.0918 1263.73 52.8488 1264.23 51.3281C1264.72 49.8075 1264.94 48.1728 1264.87 46.4241C1264.8 44.6755 1264.46 43.057 1263.84 41.5686C1263.23 40.0802 1262.32 38.8932 1261.13 38.0076C1259.93 37.1219 1258.44 36.7143 1256.65 36.7847C1254.85 36.8551 1253.39 37.3786 1252.27 38.3552C1251.15 39.3317 1250.34 40.586 1249.84 42.1181C1249.35 43.6501 1249.13 45.2904 1249.2 47.0391C1249.27 48.7877 1249.61 50.4006 1250.23 51.8776C1250.84 53.3546 1251.75 54.5303 1252.94 55.4045C1254.14 56.2788 1255.63 56.6808 1257.42 56.6104ZM1285.17 32.3902L1285.3 35.7967L1271.74 36.3287L1271.61 32.9223L1285.17 32.3902ZM1275.31 26.4993L1279.33 26.3415L1280.31 51.2769C1280.36 52.4124 1280.55 53.2575 1280.91 53.8124C1281.27 54.3554 1281.71 54.7132 1282.24 54.8857C1282.79 55.0464 1283.35 55.1152 1283.94 55.092C1284.38 55.0747 1284.75 55.0377 1285.03 54.9811C1285.31 54.9132 1285.54 54.8589 1285.7 54.8181L1286.66 58.3969C1286.4 58.5098 1286.02 58.6269 1285.53 58.7483C1285.05 58.881 1284.43 58.962 1283.69 58.9915C1282.55 59.036 1281.43 58.8356 1280.32 58.3901C1279.22 57.9442 1278.29 57.2356 1277.54 56.2645C1276.8 55.2929 1276.39 54.0463 1276.33 52.5247L1275.31 26.4993ZM1291.52 58.3428L1290.49 32.1811L1294.51 32.0234L1295.54 58.1851L1291.52 58.3428ZM1292.37 27.7407C1291.58 27.7714 1290.9 27.5311 1290.31 27.0197C1289.73 26.5078 1289.43 25.8772 1289.4 25.1278C1289.37 24.3784 1289.62 23.7259 1290.16 23.1704C1290.7 22.6144 1291.37 22.3211 1292.15 22.2903C1292.94 22.2596 1293.62 22.5001 1294.19 23.0119C1294.78 23.5233 1295.09 24.1538 1295.12 24.9032C1295.15 25.6526 1294.89 26.3053 1294.34 26.8613C1293.81 27.4168 1293.15 27.7099 1292.37 27.7407ZM1312.83 58.0523C1310.47 58.145 1308.38 57.6643 1306.55 56.6101C1304.73 55.5555 1303.29 54.0372 1302.21 52.0552C1301.14 50.0728 1300.55 47.7304 1300.45 45.0279C1300.34 42.3027 1300.74 39.9045 1301.65 37.8332C1302.57 35.7615 1303.89 34.1288 1305.62 32.9351C1307.36 31.741 1309.41 31.0976 1311.77 31.0049C1314.13 30.9123 1316.22 31.3932 1318.04 32.4478C1319.86 33.502 1321.31 35.026 1322.38 37.0197C1323.46 39.013 1324.05 41.3723 1324.16 44.0975C1324.26 46.7999 1323.86 49.1814 1322.94 51.2417C1322.03 53.3017 1320.7 54.9287 1318.97 56.1228C1317.24 57.3165 1315.19 57.9596 1312.83 58.0523ZM1312.69 54.4415C1314.48 54.371 1315.94 53.8532 1317.06 52.888C1318.19 51.9228 1319 50.6799 1319.49 49.1592C1319.99 47.6385 1320.21 46.0039 1320.14 44.2552C1320.07 42.5066 1319.73 40.8881 1319.11 39.3997C1318.49 37.9113 1317.59 36.7243 1316.4 35.8387C1315.2 34.953 1313.71 34.5454 1311.91 34.6158C1310.12 34.6862 1308.66 35.2097 1307.54 36.1862C1306.42 37.1628 1305.61 38.4171 1305.11 39.9491C1304.61 41.4812 1304.4 43.1215 1304.47 44.8702C1304.54 46.6188 1304.88 48.2317 1305.49 49.7087C1306.11 51.1857 1307.01 52.3613 1308.21 53.2356C1309.4 54.1099 1310.9 54.5119 1312.69 54.4415ZM1333.48 40.9338L1334.1 56.6717L1330.08 56.8295L1329.05 30.6678L1332.94 30.5154L1333.1 34.6032L1333.44 34.5898C1334 33.2372 1334.89 32.1333 1336.11 31.2781C1337.32 30.4115 1338.92 29.9395 1340.9 29.8619C1342.67 29.7924 1344.23 30.0949 1345.59 30.7695C1346.94 31.4327 1348.02 32.4822 1348.82 33.9181C1349.61 35.3425 1350.05 37.1675 1350.14 39.3931L1350.79 56.0167L1346.77 56.1744L1346.13 39.8234C1346.05 37.7681 1345.45 36.188 1344.34 35.0831C1343.23 33.9668 1341.74 33.4451 1339.88 33.5182C1338.6 33.5686 1337.46 33.8918 1336.47 34.4878C1335.49 35.0834 1334.74 35.9263 1334.2 37.0164C1333.66 38.1065 1333.42 39.4123 1333.48 40.9338ZM1375.15 34.7268L1371.58 35.8905C1371.33 35.2976 1370.97 34.7259 1370.51 34.1756C1370.05 33.6134 1369.44 33.1597 1368.68 32.8144C1367.92 32.4691 1366.95 32.3194 1365.78 32.3653C1364.18 32.4281 1362.86 32.8495 1361.82 33.6295C1360.79 34.3976 1360.3 35.3438 1360.35 36.4679C1360.39 37.4671 1360.78 38.242 1361.53 38.7926C1362.28 39.3432 1363.43 39.7812 1364.99 40.1067L1368.91 40.9081C1371.27 41.384 1373.05 42.1843 1374.24 43.3088C1375.44 44.422 1376.07 45.8927 1376.14 47.7208C1376.2 49.2197 1375.82 50.5765 1375 51.7913C1374.2 53.0056 1373.04 53.9835 1371.54 54.7249C1370.03 55.4664 1368.26 55.877 1366.23 55.9568C1363.56 56.0615 1361.33 55.5691 1359.53 54.4795C1357.74 53.3899 1356.57 51.7415 1356.01 49.5342L1359.79 48.4306C1360.21 49.8244 1360.94 50.8534 1361.98 51.5178C1363.03 52.1817 1364.37 52.4813 1366.02 52.4167C1367.89 52.3432 1369.37 51.8874 1370.44 51.0493C1371.52 50.1994 1372.04 49.2124 1371.99 48.0883C1371.96 47.1799 1371.61 46.4316 1370.95 45.8434C1370.29 45.2438 1369.29 44.8166 1367.96 44.5617L1363.56 43.7109C1361.15 43.2372 1359.35 42.4263 1358.18 41.2781C1357.02 40.1182 1356.41 38.6355 1356.33 36.83C1356.28 35.3539 1356.64 34.0318 1357.42 32.8638C1358.22 31.6953 1359.33 30.7592 1360.74 30.0554C1362.17 29.3511 1363.8 28.9629 1365.64 28.8907C1368.23 28.7891 1370.29 29.2771 1371.81 30.3546C1373.34 31.4317 1374.46 32.8891 1375.15 34.7268Z" fill="black"/>
<path d="M1410.13 19.6618L1415.31 31.7679L1427.78 35.9821L1415.68 41.161L1411.46 53.6357L1406.28 41.5296L1393.81 37.3154L1405.92 32.1366L1410.13 19.6618Z" fill="#F07B6E"/>
</svg>
