<svg width="1440" height="264" viewBox="0 0 1440 264" fill="none" xmlns="http://www.w3.org/2000/svg">
<rect width="1504.33" height="55.0856" transform="translate(-13.6874 65.553) rotate(2.97184)" fill="#5504B0"/>
<path d="M154.202 84.8259L158.258 97.3529L170.298 102.684L157.771 106.741L152.439 118.78L148.383 106.253L136.344 100.922L148.871 96.8656L154.202 84.8259Z" fill="#F5D16B"/>
<path d="M209.041 95.5016C208.926 93.766 208.167 92.3839 206.764 91.3552C205.361 90.3265 203.604 89.7574 201.493 89.6478C199.95 89.5677 198.586 89.7473 197.403 90.1865C196.231 90.6263 195.299 91.2664 194.606 92.1066C193.925 92.9474 193.556 93.9239 193.498 95.0361C193.45 95.9666 193.63 96.7782 194.038 97.4707C194.457 98.1525 195.008 98.7329 195.688 99.212C196.37 99.6798 197.089 100.076 197.846 100.399C198.603 100.712 199.301 100.97 199.939 101.174L203.43 102.311C204.326 102.596 205.319 102.978 206.409 103.455C207.511 103.934 208.553 104.562 209.537 105.342C210.532 106.11 211.336 107.074 211.947 108.232C212.558 109.39 212.822 110.786 212.737 112.42C212.639 114.304 212.057 115.981 210.991 117.45C209.936 118.92 208.443 120.055 206.513 120.853C204.594 121.653 202.295 121.983 199.617 121.844C197.12 121.714 194.979 121.199 193.194 120.299C191.42 119.399 190.049 118.201 189.079 116.705C188.121 115.211 187.624 113.506 187.587 111.593L191.944 111.819C191.99 113.141 192.376 114.254 193.103 115.156C193.841 116.048 194.796 116.735 195.965 117.217C197.147 117.688 198.43 117.959 199.815 118.031C201.426 118.114 202.887 117.929 204.196 117.473C205.506 117.006 206.56 116.321 207.358 115.418C208.157 114.504 208.589 113.411 208.655 112.14C208.715 110.983 208.44 110.024 207.831 109.264C207.222 108.504 206.402 107.87 205.37 107.361C204.338 106.853 203.218 106.396 202.01 105.992L197.784 104.544C195.101 103.619 193.003 102.39 191.49 100.855C189.976 99.3194 189.28 97.3773 189.402 95.0282C189.504 93.0763 190.12 91.4015 191.251 90.0037C192.393 88.5951 193.882 87.5345 195.717 86.8219C197.564 86.0984 199.599 85.7945 201.824 85.91C204.071 86.0266 206.047 86.5332 207.753 87.4296C209.459 88.3147 210.787 89.4761 211.737 90.9136C212.698 92.3517 213.161 93.9517 213.126 95.7137L209.041 95.5016ZM228.516 123.276C226.156 123.153 224.114 122.484 222.391 121.268C220.679 120.053 219.376 118.409 218.482 116.337C217.599 114.266 217.228 111.88 217.369 109.179C217.51 106.455 218.127 104.104 219.22 102.123C220.324 100.144 221.79 98.6384 223.619 97.6068C225.459 96.5758 227.559 96.1216 229.92 96.2441C232.28 96.3667 234.316 97.0356 236.028 98.251C237.752 99.467 239.054 101.116 239.936 103.199C240.829 105.282 241.205 107.686 241.064 110.409C240.924 113.11 240.302 115.445 239.198 117.413C238.106 119.381 236.64 120.881 234.8 121.912C232.971 122.944 230.877 123.398 228.516 123.276ZM228.704 119.667C230.497 119.76 231.996 119.377 233.201 118.518C234.406 117.659 235.326 116.495 235.96 115.026C236.594 113.557 236.956 111.948 237.047 110.201C237.137 108.453 236.944 106.81 236.466 105.272C235.988 103.734 235.195 102.469 234.086 101.479C232.976 100.488 231.525 99.946 229.732 99.8529C227.939 99.7598 226.44 100.149 225.234 101.019C224.028 101.889 223.108 103.065 222.474 104.545C221.839 106.026 221.477 107.64 221.386 109.388C221.295 111.135 221.489 112.772 221.967 114.299C222.445 115.826 223.24 117.079 224.349 118.059C225.459 119.038 226.911 119.574 228.704 119.667ZM250.639 108.107L249.823 123.836L245.806 123.627L247.163 97.4807L251.044 97.6822L250.832 101.768L251.172 101.785C251.854 100.489 252.84 99.4709 254.13 98.7299C255.421 97.9777 257.054 97.6528 259.028 97.7553C260.799 97.8472 262.329 98.2908 263.619 99.086C264.91 99.8699 265.886 101.013 266.547 102.515C267.21 104.006 267.483 105.864 267.367 108.088L266.505 124.702L262.488 124.493L263.336 108.152C263.443 106.098 262.992 104.47 261.985 103.268C260.978 102.055 259.545 101.401 257.683 101.304C256.401 101.237 255.24 101.456 254.202 101.96C253.174 102.464 252.343 103.234 251.709 104.271C251.075 105.308 250.718 106.586 250.639 108.107ZM283.144 135.943C281.203 135.843 279.548 135.506 278.178 134.934C276.807 134.374 275.678 133.667 274.789 132.813C273.911 131.971 273.223 131.082 272.726 130.145L276.042 128.065C276.381 128.56 276.812 129.129 277.336 129.77C277.86 130.423 278.593 131.002 279.534 131.506C280.485 132.022 281.75 132.321 283.327 132.403C285.438 132.512 287.207 132.092 288.633 131.142C290.059 130.192 290.829 128.627 290.942 126.448L291.217 121.137L290.877 121.12C290.557 121.581 290.107 122.149 289.525 122.825C288.956 123.489 288.152 124.068 287.114 124.56C286.088 125.041 284.723 125.238 283.021 125.15C280.91 125.04 279.041 124.442 277.413 123.357C275.797 122.271 274.55 120.75 273.673 118.793C272.808 116.836 272.446 114.496 272.587 111.773C272.726 109.094 273.318 106.787 274.363 104.85C275.409 102.901 276.8 101.426 278.536 100.424C280.272 99.4101 282.242 98.9604 284.443 99.0747C286.145 99.1631 287.481 99.5169 288.45 100.136C289.431 100.745 290.17 101.42 290.666 102.163C291.175 102.895 291.564 103.495 291.836 103.965L292.244 103.986L292.46 99.8323L296.341 100.034L294.945 126.929C294.828 129.176 294.223 130.977 293.128 132.331C292.045 133.697 290.629 134.665 288.881 135.234C287.144 135.815 285.232 136.052 283.144 135.943ZM283.753 121.569C285.365 121.653 286.746 121.355 287.896 120.675C289.047 119.995 289.947 118.978 290.598 117.623C291.248 116.269 291.624 114.627 291.724 112.698C291.822 110.814 291.624 109.137 291.132 107.666C290.639 106.195 289.858 105.023 288.788 104.148C287.719 103.273 286.367 102.793 284.732 102.708C283.03 102.62 281.589 102.977 280.41 103.781C279.241 104.585 278.336 105.699 277.693 107.122C277.062 108.546 276.7 110.143 276.608 111.913C276.514 113.729 276.714 115.349 277.209 116.775C277.716 118.189 278.51 119.323 279.593 120.175C280.687 121.017 282.074 121.482 283.753 121.569ZM314.926 127.216L316.736 92.3535L328.516 92.9651C331.25 93.107 333.46 93.7168 335.146 94.7942C336.843 95.8609 338.068 97.2501 338.821 98.962C339.574 100.674 339.897 102.557 339.791 104.611C339.684 106.665 339.167 108.51 338.24 110.146C337.325 111.782 335.973 113.055 334.185 113.963C332.397 114.861 330.147 115.239 327.435 115.098L318.992 114.66L319.186 110.915L327.493 111.346C329.366 111.443 330.886 111.198 332.054 110.61C333.223 110.022 334.091 109.191 334.659 108.116C335.238 107.031 335.565 105.791 335.637 104.395C335.71 102.999 335.513 101.737 335.048 100.609C334.595 99.4822 333.811 98.5767 332.697 97.8931C331.584 97.198 330.08 96.8013 328.185 96.703L320.763 96.3176L319.148 127.435L314.926 127.216ZM354.403 129.811C352.043 129.689 350.001 129.019 348.277 127.804C346.565 126.588 345.262 124.944 344.369 122.873C343.486 120.801 343.115 118.415 343.255 115.714C343.397 112.991 344.014 110.639 345.106 108.659C346.211 106.679 347.677 105.174 349.506 104.142C351.346 103.111 353.446 102.657 355.806 102.78C358.167 102.902 360.203 103.571 361.915 104.786C363.638 106.002 364.941 107.652 365.823 109.734C366.716 111.818 367.092 114.221 366.951 116.945C366.81 119.645 366.189 121.98 365.085 123.948C363.993 125.917 362.527 127.417 360.687 128.448C358.858 129.479 356.763 129.934 354.403 129.811ZM354.59 126.203C356.383 126.296 357.883 125.913 359.088 125.053C360.293 124.194 361.213 123.03 361.846 121.561C362.48 120.092 362.843 118.484 362.933 116.736C363.024 114.988 362.831 113.345 362.353 111.807C361.875 110.269 361.082 109.005 359.972 108.014C358.863 107.023 357.412 106.481 355.619 106.388C353.826 106.295 352.327 106.684 351.121 107.554C349.915 108.425 348.995 109.6 348.36 111.081C347.726 112.561 347.363 114.175 347.273 115.923C347.182 117.671 347.376 119.308 347.854 120.835C348.332 122.362 349.126 123.615 350.236 124.594C351.346 125.573 352.797 126.109 354.59 126.203ZM391.266 110.833L387.604 111.667C387.409 111.054 387.104 110.452 386.691 109.862C386.29 109.261 385.725 108.753 384.995 108.34C384.265 107.927 383.316 107.69 382.147 107.629C380.547 107.546 379.195 107.845 378.09 108.528C376.997 109.199 376.421 110.097 376.362 111.22C376.311 112.219 376.633 113.026 377.329 113.643C378.025 114.259 379.135 114.801 380.658 115.267L384.49 116.421C386.798 117.11 388.495 118.069 389.581 119.297C390.667 120.514 391.163 122.036 391.068 123.863C390.99 125.361 390.489 126.678 389.565 127.813C388.653 128.949 387.413 129.818 385.846 130.42C384.278 131.021 382.479 131.269 380.448 131.163C377.781 131.025 375.604 130.332 373.916 129.083C372.228 127.835 371.21 126.087 370.86 123.838L374.723 123.083C375.013 124.509 375.644 125.6 376.618 126.356C377.603 127.113 378.918 127.534 380.563 127.619C382.436 127.716 383.943 127.396 385.085 126.659C386.239 125.911 386.845 124.975 386.904 123.852C386.951 122.944 386.672 122.167 386.069 121.521C385.466 120.864 384.514 120.348 383.213 119.974L378.909 118.726C376.544 118.034 374.83 117.063 373.769 115.814C372.719 114.553 372.241 113.02 372.335 111.216C372.411 109.741 372.893 108.457 373.78 107.365C374.679 106.274 375.866 105.442 377.341 104.87C378.827 104.299 380.489 104.061 382.328 104.156C384.915 104.291 386.917 104.964 388.333 106.175C389.761 107.387 390.739 108.94 391.266 110.833ZM408.746 105.869L408.569 109.274L395.019 108.57L395.196 105.166L408.746 105.869ZM399.471 99.1065L403.488 99.3151L402.194 124.236C402.135 125.371 402.256 126.231 402.555 126.815C402.867 127.389 403.279 127.786 403.791 128.006C404.315 128.215 404.872 128.335 405.462 128.366C405.904 128.389 406.269 128.385 406.555 128.354C406.841 128.312 407.071 128.278 407.243 128.253L407.872 131.904C407.595 131.992 407.209 132.075 406.716 132.152C406.222 132.24 405.601 132.264 404.852 132.226C403.717 132.167 402.617 131.865 401.553 131.32C400.501 130.776 399.643 129.987 398.98 128.951C398.328 127.916 398.041 126.638 398.12 125.117L399.471 99.1065ZM423.366 133.392C420.847 133.261 418.702 132.592 416.933 131.385C415.176 130.167 413.855 128.528 412.972 126.468C412.101 124.398 411.735 122.023 411.874 119.345C412.013 116.667 412.624 114.332 413.706 112.34C414.8 110.337 416.256 108.808 418.075 107.753C419.905 106.688 422 106.216 424.361 106.339C425.723 106.409 427.056 106.706 428.36 107.229C429.664 107.752 430.834 108.552 431.871 109.63C432.908 110.697 433.706 112.081 434.267 113.783C434.827 115.484 435.044 117.555 434.917 119.995L434.829 121.697L414.674 120.651L414.854 117.178L430.924 118.013C431 116.537 430.773 115.206 430.243 114.017C429.725 112.83 428.944 111.873 427.9 111.148C426.868 110.423 425.626 110.023 424.174 109.947C422.573 109.864 421.168 110.19 419.958 110.923C418.76 111.646 417.816 112.621 417.127 113.849C416.437 115.076 416.055 116.41 415.98 117.851L415.86 120.166C415.757 122.141 416.011 123.833 416.62 125.241C417.242 126.639 418.147 127.727 419.336 128.506C420.525 129.273 421.931 129.698 423.553 129.783C424.609 129.838 425.57 129.739 426.436 129.489C427.315 129.227 428.081 128.812 428.737 128.243C429.393 127.662 429.915 126.927 430.302 126.037L434.127 127.328C433.65 128.623 432.903 129.745 431.887 130.693C430.871 131.631 429.639 132.34 428.192 132.823C426.745 133.294 425.136 133.483 423.366 133.392ZM439.613 133.689L440.97 107.542L444.851 107.744L444.646 111.693L444.919 111.707C445.462 110.438 446.379 109.433 447.669 108.692C448.96 107.951 450.388 107.621 451.954 107.703C452.249 107.718 452.617 107.743 453.059 107.777C453.501 107.812 453.835 107.846 454.061 107.88L453.849 111.966C453.715 111.925 453.405 111.857 452.921 111.764C452.448 111.66 451.945 111.594 451.412 111.566C450.141 111.5 448.992 111.708 447.966 112.19C446.951 112.66 446.131 113.346 445.504 114.246C444.888 115.136 444.55 116.171 444.489 117.351L443.63 133.897L439.613 133.689Z" fill="#E0E0E0"/>
<path d="M487.753 102.142L491.809 114.669L503.849 120.001L491.322 124.057L485.99 136.097L481.934 123.57L469.895 118.238L482.422 114.182L487.753 102.142Z" fill="#F5D16B"/>
<path d="M542.592 112.818C542.477 111.082 541.718 109.7 540.315 108.672C538.912 107.643 537.155 107.074 535.044 106.964C533.501 106.884 532.137 107.064 530.954 107.503C529.782 107.943 528.849 108.583 528.157 109.423C527.476 110.264 527.107 111.24 527.049 112.352C527.001 113.283 527.181 114.094 527.589 114.787C528.008 115.469 528.559 116.049 529.239 116.528C529.92 116.996 530.639 117.392 531.396 117.716C532.154 118.028 532.852 118.286 533.49 118.49L536.981 119.627C537.876 119.912 538.869 120.294 539.96 120.772C541.061 121.25 542.104 121.879 543.088 122.658C544.083 123.426 544.887 124.39 545.498 125.548C546.109 126.706 546.372 128.103 546.287 129.737C546.19 131.621 545.608 133.297 544.541 134.767C543.487 136.237 541.994 137.371 540.064 138.17C538.144 138.969 535.846 139.299 533.168 139.16C530.671 139.031 528.53 138.515 526.745 137.615C524.971 136.715 523.599 135.517 522.63 134.022C521.672 132.527 521.175 130.823 521.137 128.909L525.495 129.135C525.54 130.458 525.926 131.57 526.653 132.473C527.392 133.364 528.347 134.051 529.516 134.533C530.698 135.004 531.981 135.275 533.366 135.347C534.977 135.431 536.438 135.245 537.747 134.789C539.057 134.323 540.111 133.638 540.909 132.735C541.707 131.82 542.14 130.728 542.206 129.457C542.266 128.299 541.991 127.34 541.382 126.58C540.773 125.821 539.952 125.186 538.921 124.678C537.889 124.169 536.769 123.712 535.561 123.308L531.335 121.86C528.652 120.936 526.554 119.706 525.04 118.171C523.527 116.636 522.831 114.694 522.953 112.345C523.055 110.393 523.671 108.718 524.801 107.32C525.944 105.911 527.433 104.851 529.268 104.138C531.115 103.415 533.15 103.111 535.375 103.226C537.622 103.343 539.598 103.849 541.304 104.746C543.01 105.631 544.338 106.792 545.288 108.23C546.248 109.668 546.711 111.268 546.677 113.03L542.592 112.818ZM562.067 140.592C559.707 140.47 557.665 139.8 555.941 138.584C554.229 137.369 552.926 135.725 552.033 133.654C551.15 131.582 550.779 129.196 550.919 126.495C551.061 123.772 551.678 121.42 552.771 119.44C553.875 117.46 555.341 115.955 557.17 114.923C559.01 113.892 561.11 113.438 563.47 113.56C565.831 113.683 567.867 114.352 569.579 115.567C571.303 116.783 572.605 118.433 573.487 120.515C574.38 122.598 574.756 125.002 574.615 127.725C574.474 130.426 573.853 132.761 572.749 134.729C571.657 136.698 570.191 138.198 568.351 139.229C566.522 140.26 564.428 140.715 562.067 140.592ZM562.254 136.983C564.047 137.076 565.547 136.693 566.752 135.834C567.957 134.975 568.877 133.811 569.511 132.342C570.144 130.873 570.507 129.265 570.597 127.517C570.688 125.769 570.495 124.126 570.017 122.588C569.539 121.05 568.746 119.785 567.636 118.795C566.527 117.804 565.076 117.262 563.283 117.169C561.49 117.076 559.991 117.465 558.785 118.335C557.579 119.206 556.659 120.381 556.024 121.862C555.39 123.342 555.027 124.956 554.937 126.704C554.846 128.451 555.04 130.089 555.518 131.616C555.996 133.142 556.79 134.396 557.9 135.375C559.01 136.354 560.461 136.89 562.254 136.983ZM584.19 125.423L583.374 141.152L579.356 140.944L580.714 114.797L584.595 114.998L584.383 119.084L584.723 119.102C585.405 117.806 586.391 116.787 587.681 116.046C588.972 115.294 590.605 114.969 592.579 115.072C594.349 115.163 595.88 115.607 597.17 116.402C598.46 117.186 599.437 118.329 600.098 119.831C600.76 121.322 601.034 123.18 600.918 125.404L600.056 142.018L596.038 141.81L596.887 125.468C596.993 123.414 596.543 121.786 595.536 120.585C594.529 119.372 593.095 118.717 591.234 118.62C589.952 118.554 588.791 118.772 587.752 119.276C586.725 119.78 585.894 120.551 585.26 121.587C584.626 122.624 584.269 123.903 584.19 125.423ZM616.694 153.26C614.754 153.159 613.099 152.823 611.729 152.251C610.358 151.69 609.229 150.983 608.34 150.129C607.462 149.287 606.774 148.398 606.276 147.462L609.593 145.381C609.932 145.876 610.363 146.445 610.887 147.087C611.411 147.74 612.143 148.318 613.084 148.822C614.036 149.338 615.301 149.637 616.878 149.719C618.989 149.828 620.757 149.408 622.184 148.458C623.61 147.508 624.379 145.944 624.493 143.765L624.768 138.454L624.428 138.436C624.108 138.897 623.658 139.466 623.076 140.141C622.507 140.806 621.703 141.384 620.665 141.876C619.639 142.358 618.274 142.554 616.572 142.466C614.461 142.356 612.592 141.759 610.964 140.673C609.348 139.588 608.101 138.066 607.224 136.109C606.359 134.153 605.996 131.812 606.138 129.089C606.277 126.411 606.869 124.103 607.914 122.166C608.96 120.218 610.35 118.742 612.087 117.74C613.823 116.726 615.792 116.277 617.994 116.391C619.696 116.479 621.032 116.833 622.001 117.452C622.982 118.061 623.721 118.737 624.217 119.479C624.725 120.211 625.115 120.812 625.387 121.281L625.795 121.302L626.011 117.149L629.892 117.35L628.496 144.246C628.379 146.493 627.774 148.293 626.679 149.647C625.596 151.013 624.18 151.981 622.432 152.55C620.695 153.132 618.782 153.368 616.694 153.26ZM617.304 138.885C618.916 138.969 620.296 138.671 621.447 137.991C622.597 137.311 623.498 136.294 624.149 134.94C624.799 133.585 625.175 131.943 625.275 130.014C625.373 128.13 625.175 126.453 624.683 124.982C624.19 123.512 623.409 122.339 622.339 121.464C621.269 120.589 619.917 120.109 618.283 120.025C616.581 119.936 615.14 120.294 613.96 121.097C612.792 121.901 611.887 123.015 611.244 124.438C610.612 125.862 610.251 127.459 610.159 129.229C610.064 131.045 610.265 132.666 610.76 134.091C611.267 135.505 612.061 136.639 613.143 137.492C614.238 138.334 615.625 138.798 617.304 138.885ZM648.477 144.532L650.287 109.67L662.066 110.281C664.801 110.423 667.011 111.033 668.696 112.11C670.393 113.177 671.618 114.566 672.372 116.278C673.125 117.99 673.448 119.873 673.341 121.927C673.235 123.981 672.718 125.826 671.791 127.462C670.875 129.099 669.523 130.371 667.735 131.28C665.948 132.177 663.698 132.555 660.986 132.414L652.542 131.976L652.737 128.231L661.044 128.662C662.916 128.759 664.437 128.514 665.605 127.926C666.774 127.338 667.642 126.507 668.21 125.433C668.789 124.348 669.115 123.107 669.188 121.711C669.26 120.316 669.064 119.054 668.599 117.926C668.146 116.798 667.362 115.893 666.248 115.209C665.135 114.514 663.631 114.118 661.736 114.019L654.314 113.634L652.698 144.751L648.477 144.532ZM687.954 147.128C685.593 147.005 683.551 146.336 681.828 145.12C680.116 143.904 678.813 142.261 677.919 140.189C677.037 138.118 676.666 135.732 676.806 133.031C676.947 130.307 677.565 127.955 678.657 125.975C679.761 123.996 681.228 122.49 683.056 121.458C684.896 120.427 686.997 119.973 689.357 120.096C691.718 120.218 693.754 120.887 695.466 122.103C697.189 123.319 698.492 124.968 699.374 127.051C700.267 129.134 700.643 131.537 700.501 134.261C700.361 136.962 699.739 139.296 698.636 141.264C697.544 143.233 696.078 144.733 694.238 145.764C692.409 146.796 690.314 147.25 687.954 147.128ZM688.141 143.519C689.934 143.612 691.433 143.229 692.639 142.37C693.844 141.511 694.763 140.347 695.397 138.877C696.031 137.408 696.393 135.8 696.484 134.052C696.575 132.305 696.381 130.662 695.904 129.123C695.426 127.585 694.632 126.321 693.523 125.33C692.414 124.34 690.963 123.798 689.17 123.705C687.377 123.611 685.877 124 684.671 124.871C683.466 125.741 682.546 126.917 681.911 128.397C681.277 129.878 680.914 131.492 680.823 133.239C680.733 134.987 680.926 136.624 681.405 138.151C681.883 139.678 682.677 140.931 683.787 141.91C684.897 142.89 686.348 143.426 688.141 143.519ZM724.817 128.15L721.155 128.984C720.959 128.37 720.655 127.769 720.242 127.178C719.841 126.577 719.275 126.07 718.546 125.656C717.816 125.243 716.867 125.006 715.698 124.945C714.098 124.862 712.745 125.162 711.64 125.844C710.547 126.516 709.972 127.413 709.913 128.537C709.861 129.535 710.184 130.343 710.88 130.959C711.576 131.576 712.686 132.117 714.209 132.583L718.041 133.738C720.349 134.426 722.046 135.385 723.132 136.613C724.218 137.83 724.713 139.352 724.619 141.18C724.541 142.678 724.04 143.994 723.116 145.13C722.204 146.266 720.964 147.134 719.397 147.736C717.829 148.337 716.03 148.585 713.998 148.48C711.332 148.341 709.154 147.648 707.467 146.4C705.779 145.151 704.761 143.403 704.411 141.155L708.273 140.399C708.563 141.825 709.195 142.916 710.169 143.672C711.154 144.429 712.469 144.85 714.114 144.935C715.987 145.033 717.494 144.713 718.636 143.975C719.79 143.227 720.396 142.292 720.454 141.168C720.502 140.26 720.223 139.484 719.62 138.838C719.016 138.181 718.065 137.665 716.764 137.29L712.459 136.042C710.094 135.351 708.381 134.38 707.319 133.13C706.27 131.869 705.792 130.337 705.885 128.532C705.962 127.057 706.444 125.773 707.331 124.682C708.23 123.59 709.417 122.759 710.892 122.187C712.378 121.615 714.04 121.377 715.878 121.473C718.466 121.607 720.468 122.28 721.884 123.491C723.312 124.703 724.29 126.256 724.817 128.15ZM742.297 123.186L742.12 126.59L728.57 125.887L728.747 122.482L742.297 123.186ZM733.021 116.423L737.039 116.631L735.745 141.552C735.686 142.687 735.806 143.547 736.106 144.131C736.418 144.705 736.829 145.102 737.341 145.322C737.865 145.531 738.422 145.651 739.013 145.682C739.455 145.705 739.819 145.701 740.106 145.67C740.392 145.628 740.622 145.595 740.794 145.57L741.423 149.221C741.146 149.309 740.76 149.391 740.267 149.468C739.773 149.556 739.152 149.581 738.403 149.542C737.268 149.483 736.168 149.181 735.104 148.637C734.051 148.093 733.193 147.303 732.53 146.267C731.879 145.232 731.592 143.954 731.671 142.433L733.021 116.423ZM756.917 150.708C754.398 150.577 752.253 149.908 750.484 148.701C748.726 147.483 747.406 145.845 746.523 143.785C745.652 141.714 745.286 139.34 745.425 136.661C745.564 133.983 746.175 131.648 747.257 129.656C748.351 127.653 749.807 126.124 751.625 125.069C753.456 124.004 755.551 123.532 757.912 123.655C759.273 123.726 760.606 124.022 761.911 124.545C763.215 125.068 764.385 125.868 765.422 126.946C766.459 128.013 767.257 129.397 767.817 131.099C768.378 132.801 768.595 134.871 768.468 137.311L768.379 139.014L748.225 137.967L748.405 134.495L764.474 135.329C764.551 133.854 764.324 132.522 763.794 131.334C763.276 130.146 762.495 129.19 761.451 128.464C760.419 127.739 759.177 127.339 757.724 127.264C756.124 127.181 754.719 127.506 753.509 128.24C752.311 128.962 751.367 129.938 750.677 131.165C749.988 132.392 749.606 133.726 749.531 135.168L749.411 137.483C749.308 139.457 749.562 141.149 750.171 142.557C750.793 143.955 751.698 145.043 752.886 145.822C754.075 146.589 755.481 147.015 757.104 147.099C758.16 147.154 759.121 147.056 759.987 146.805C760.865 146.543 761.632 146.128 762.288 145.559C762.944 144.978 763.465 144.243 763.853 143.353L767.678 144.644C767.201 145.939 766.454 147.061 765.438 148.01C764.422 148.947 763.19 149.657 761.743 150.139C760.296 150.61 758.687 150.8 756.917 150.708ZM773.164 151.005L774.521 124.858L778.402 125.06L778.197 129.009L778.469 129.023C779.013 127.754 779.93 126.749 781.22 126.008C782.51 125.268 783.939 124.938 785.505 125.019C785.8 125.034 786.168 125.059 786.61 125.093C787.052 125.128 787.386 125.162 787.612 125.197L787.4 129.282C787.265 129.241 786.956 129.174 786.472 129.08C785.999 128.976 785.496 128.91 784.963 128.882C783.692 128.817 782.543 129.024 781.517 129.506C780.502 129.977 779.682 130.662 779.054 131.563C778.439 132.452 778.101 133.487 778.04 134.668L777.181 151.214L773.164 151.005ZM814.346 153.143L803.587 152.585L805.397 117.722L816.632 118.306C820.014 118.481 822.872 119.329 825.205 120.85C827.539 122.359 829.28 124.447 830.427 127.112C831.575 129.766 832.055 132.898 831.868 136.506C831.68 140.138 830.87 143.231 829.441 145.785C828.011 148.328 826.023 150.239 823.476 151.518C820.93 152.785 817.886 153.327 814.346 153.143ZM808.003 149.059L814.268 149.384C817.15 149.534 819.568 149.102 821.521 148.088C823.474 147.074 824.969 145.564 826.006 143.559C827.043 141.553 827.635 139.131 827.783 136.294C827.929 133.48 827.595 131.033 826.781 128.954C825.968 126.864 824.676 125.226 822.906 124.042C821.136 122.846 818.889 122.178 816.165 122.036L809.424 121.686L808.003 149.059ZM847.711 155.421C845.192 155.291 843.048 154.622 841.278 153.415C839.521 152.197 838.201 150.558 837.318 148.498C836.447 146.428 836.081 144.053 836.22 141.375C836.359 138.697 836.969 136.362 838.051 134.37C839.145 132.367 840.601 130.838 842.42 129.783C844.25 128.717 846.346 128.246 848.706 128.368C850.068 128.439 851.401 128.736 852.705 129.259C854.009 129.782 855.18 130.582 856.216 131.66C857.253 132.726 858.052 134.111 858.612 135.812C859.172 137.514 859.389 139.585 859.262 142.025L859.174 143.727L839.019 142.681L839.2 139.208L855.269 140.043C855.346 138.567 855.119 137.236 854.589 136.047C854.07 134.86 853.289 133.903 852.246 133.178C851.214 132.453 849.972 132.053 848.519 131.977C846.919 131.894 845.514 132.219 844.304 132.953C843.105 133.676 842.162 134.651 841.472 135.878C840.782 137.106 840.4 138.44 840.325 139.881L840.205 142.196C840.103 144.171 840.356 145.862 840.966 147.271C841.587 148.669 842.492 149.757 843.681 150.535C844.87 151.303 846.276 151.728 847.899 151.813C848.954 151.867 849.915 151.769 850.782 151.518C851.66 151.257 852.427 150.842 853.082 150.272C853.738 149.692 854.26 148.957 854.648 148.067L858.472 149.357C857.995 150.653 857.249 151.775 856.232 152.723C855.216 153.66 853.985 154.37 852.537 154.853C851.09 155.324 849.482 155.513 847.711 155.421ZM883.532 136.389L879.87 137.223C879.675 136.61 879.37 136.008 878.957 135.418C878.556 134.817 877.99 134.309 877.261 133.896C876.531 133.483 875.582 133.246 874.413 133.185C872.813 133.102 871.461 133.401 870.355 134.084C869.262 134.755 868.687 135.653 868.628 136.776C868.576 137.775 868.899 138.582 869.595 139.199C870.291 139.815 871.401 140.357 872.924 140.823L876.756 141.977C879.064 142.666 880.761 143.625 881.847 144.853C882.933 146.07 883.428 147.592 883.334 149.419C883.256 150.917 882.755 152.234 881.831 153.369C880.919 154.505 879.679 155.374 878.112 155.976C876.544 156.577 874.745 156.825 872.713 156.719C870.047 156.581 867.869 155.888 866.182 154.639C864.494 153.391 863.476 151.643 863.126 149.394L866.988 148.639C867.278 150.065 867.91 151.156 868.884 151.912C869.869 152.669 871.184 153.09 872.829 153.175C874.702 153.272 876.209 152.952 877.351 152.215C878.505 151.467 879.111 150.531 879.169 149.408C879.217 148.5 878.938 147.723 878.335 147.077C877.731 146.42 876.78 145.904 875.479 145.53L871.174 144.282C868.809 143.59 867.096 142.619 866.034 141.369C864.985 140.109 864.507 138.576 864.6 136.772C864.677 135.297 865.159 134.013 866.046 132.921C866.945 131.83 868.132 130.998 869.607 130.426C871.093 129.855 872.755 129.617 874.593 129.712C877.181 129.847 879.183 130.52 880.599 131.731C882.027 132.943 883.005 134.496 883.532 136.389ZM888.284 156.982L889.641 130.835L893.658 131.043L892.301 157.19L888.284 156.982ZM891.91 126.583C891.127 126.543 890.465 126.241 889.926 125.678C889.397 125.116 889.153 124.46 889.191 123.711C889.23 122.962 889.542 122.335 890.125 121.831C890.721 121.327 891.41 121.095 892.193 121.136C892.976 121.177 893.631 121.478 894.16 122.04C894.699 122.603 894.95 123.259 894.911 124.008C894.872 124.757 894.555 125.383 893.96 125.887C893.376 126.392 892.693 126.624 891.91 126.583ZM908.956 168.432C907.016 168.332 905.361 167.995 903.991 167.424C902.62 166.863 901.491 166.156 900.602 165.302C899.724 164.46 899.036 163.571 898.538 162.634L901.855 160.554C902.194 161.049 902.625 161.618 903.149 162.259C903.673 162.912 904.405 163.491 905.346 163.995C906.298 164.511 907.563 164.81 909.14 164.892C911.251 165.001 913.02 164.581 914.446 163.631C915.872 162.681 916.642 161.116 916.755 158.937L917.03 153.626L916.69 153.609C916.37 154.07 915.92 154.638 915.338 155.314C914.769 155.978 913.965 156.557 912.927 157.049C911.901 157.531 910.536 157.727 908.834 157.639C906.723 157.529 904.854 156.931 903.226 155.846C901.61 154.76 900.363 153.239 899.486 151.282C898.621 149.325 898.259 146.985 898.4 144.262C898.539 141.583 899.131 139.276 900.176 137.339C901.222 135.39 902.612 133.915 904.349 132.913C906.085 131.899 908.054 131.449 910.256 131.564C911.958 131.652 913.294 132.006 914.263 132.625C915.244 133.234 915.983 133.909 916.479 134.652C916.987 135.384 917.377 135.984 917.649 136.454L918.057 136.475L918.273 132.321L922.154 132.523L920.758 159.418C920.641 161.665 920.036 163.466 918.941 164.82C917.858 166.186 916.442 167.154 914.694 167.723C912.957 168.304 911.045 168.541 908.956 168.432ZM909.566 154.058C911.178 154.142 912.559 153.844 913.709 153.164C914.859 152.484 915.76 151.467 916.411 150.112C917.061 148.758 917.437 147.116 917.537 145.187C917.635 143.303 917.437 141.626 916.945 140.155C916.452 138.684 915.671 137.512 914.601 136.637C913.531 135.762 912.179 135.282 910.545 135.197C908.843 135.109 907.402 135.466 906.223 136.27C905.054 137.074 904.149 138.188 903.506 139.611C902.874 141.035 902.513 142.632 902.421 144.402C902.327 146.218 902.527 147.838 903.022 149.264C903.529 150.678 904.323 151.812 905.406 152.665C906.5 153.506 907.887 153.971 909.566 154.058ZM932.265 143.494L931.449 159.222L927.431 159.014L928.789 132.867L932.67 133.069L932.458 137.154L932.798 137.172C933.48 135.876 934.466 134.857 935.756 134.117C937.047 133.364 938.68 133.039 940.654 133.142C942.425 133.234 943.955 133.677 945.245 134.473C946.535 135.256 947.512 136.4 948.173 137.902C948.835 139.393 949.109 141.25 948.993 143.474L948.131 160.088L944.113 159.88L944.962 143.538C945.069 141.484 944.618 139.856 943.611 138.655C942.604 137.442 941.17 136.787 939.309 136.691C938.027 136.624 936.866 136.843 935.827 137.346C934.8 137.85 933.969 138.621 933.335 139.658C932.701 140.694 932.344 141.973 932.265 143.494Z" fill="#E0E0E0"/>
<path d="M986.082 128.013L990.138 140.54L1002.18 145.871L989.651 149.928L984.319 161.967L980.263 149.44L968.223 144.109L980.75 140.053L986.082 128.013Z" fill="#F5D16B"/>
<path d="M1040.92 138.689C1040.81 136.953 1040.05 135.571 1038.64 134.542C1037.24 133.514 1035.48 132.944 1033.37 132.835C1031.83 132.755 1030.47 132.934 1029.28 133.374C1028.11 133.813 1027.18 134.453 1026.49 135.294C1025.81 136.134 1025.44 137.111 1025.38 138.223C1025.33 139.154 1025.51 139.965 1025.92 140.658C1026.34 141.339 1026.89 141.92 1027.57 142.399C1028.25 142.867 1028.97 143.263 1029.73 143.586C1030.48 143.899 1031.18 144.157 1031.82 144.361L1035.31 145.498C1036.21 145.783 1037.2 146.165 1038.29 146.642C1039.39 147.121 1040.43 147.749 1041.42 148.529C1042.41 149.297 1043.22 150.261 1043.83 151.419C1044.44 152.577 1044.7 153.973 1044.62 155.607C1044.52 157.491 1043.94 159.168 1042.87 160.637C1041.82 162.107 1040.32 163.242 1038.39 164.04C1036.47 164.84 1034.17 165.17 1031.5 165.031C1029 164.901 1026.86 164.386 1025.07 163.486C1023.3 162.586 1021.93 161.388 1020.96 159.892C1020 158.398 1019.5 156.693 1019.47 154.78L1023.82 155.006C1023.87 156.328 1024.26 157.441 1024.98 158.343C1025.72 159.235 1026.68 159.922 1027.85 160.404C1029.03 160.875 1030.31 161.146 1031.69 161.218C1033.31 161.301 1034.77 161.116 1036.08 160.66C1037.39 160.193 1038.44 159.508 1039.24 158.605C1040.04 157.691 1040.47 156.598 1040.53 155.327C1040.59 154.17 1040.32 153.211 1039.71 152.451C1039.1 151.691 1038.28 151.057 1037.25 150.548C1036.22 150.04 1035.1 149.583 1033.89 149.179L1029.66 147.731C1026.98 146.806 1024.88 145.577 1023.37 144.042C1021.86 142.506 1021.16 140.564 1021.28 138.215C1021.38 136.263 1022 134.588 1023.13 133.191C1024.27 131.782 1025.76 130.722 1027.6 130.009C1029.44 129.285 1031.48 128.981 1033.7 129.097C1035.95 129.214 1037.93 129.72 1039.63 130.617C1041.34 131.502 1042.67 132.663 1043.62 134.101C1044.58 135.539 1045.04 137.139 1045.01 138.901L1040.92 138.689ZM1060.4 166.463C1058.04 166.34 1055.99 165.671 1054.27 164.455C1052.56 163.24 1051.26 161.596 1050.36 159.524C1049.48 157.453 1049.11 155.067 1049.25 152.366C1049.39 149.642 1050.01 147.291 1051.1 145.31C1052.2 143.331 1053.67 141.825 1055.5 140.794C1057.34 139.763 1059.44 139.309 1061.8 139.431C1064.16 139.554 1066.2 140.223 1067.91 141.438C1069.63 142.654 1070.93 144.303 1071.82 146.386C1072.71 148.469 1073.09 150.873 1072.94 153.596C1072.8 156.297 1072.18 158.632 1071.08 160.6C1069.99 162.568 1068.52 164.068 1066.68 165.099C1064.85 166.131 1062.76 166.585 1060.4 166.463ZM1060.58 162.854C1062.38 162.947 1063.88 162.564 1065.08 161.705C1066.29 160.846 1067.21 159.682 1067.84 158.213C1068.47 156.744 1068.84 155.135 1068.93 153.388C1069.02 151.64 1068.82 149.997 1068.35 148.459C1067.87 146.921 1067.07 145.656 1065.97 144.666C1064.86 143.675 1063.41 143.133 1061.61 143.04C1059.82 142.947 1058.32 143.336 1057.11 144.206C1055.91 145.076 1054.99 146.252 1054.35 147.732C1053.72 149.213 1053.36 150.827 1053.27 152.575C1053.17 154.322 1053.37 155.959 1053.85 157.486C1054.33 159.013 1055.12 160.266 1056.23 161.246C1057.34 162.225 1058.79 162.761 1060.58 162.854ZM1082.52 151.294L1081.7 167.023L1077.69 166.814L1079.04 140.668L1082.92 140.869L1082.71 144.955L1083.05 144.972C1083.73 143.676 1084.72 142.658 1086.01 141.917C1087.3 141.165 1088.93 140.84 1090.91 140.942C1092.68 141.034 1094.21 141.478 1095.5 142.273C1096.79 143.057 1097.77 144.2 1098.43 145.702C1099.09 147.193 1099.36 149.051 1099.25 151.275L1098.38 167.889L1094.37 167.68L1095.22 151.339C1095.32 149.285 1094.87 147.657 1093.86 146.455C1092.86 145.242 1091.42 144.588 1089.56 144.491C1088.28 144.424 1087.12 144.643 1086.08 145.147C1085.05 145.651 1084.22 146.421 1083.59 147.458C1082.95 148.495 1082.6 149.773 1082.52 151.294ZM1115.02 179.13C1113.08 179.03 1111.43 178.693 1110.06 178.121C1108.69 177.561 1107.56 176.854 1106.67 176C1105.79 175.158 1105.1 174.269 1104.61 173.332L1107.92 171.252C1108.26 171.747 1108.69 172.316 1109.22 172.957C1109.74 173.61 1110.47 174.189 1111.41 174.693C1112.37 175.209 1113.63 175.508 1115.21 175.59C1117.32 175.699 1119.09 175.279 1120.51 174.329C1121.94 173.379 1122.71 171.814 1122.82 169.635L1123.1 164.324L1122.76 164.307C1122.44 164.768 1121.99 165.336 1121.41 166.012C1120.84 166.676 1120.03 167.255 1118.99 167.747C1117.97 168.228 1116.6 168.425 1114.9 168.337C1112.79 168.227 1110.92 167.629 1109.29 166.544C1107.68 165.458 1106.43 163.937 1105.55 161.98C1104.69 160.023 1104.33 157.683 1104.47 154.96C1104.61 152.281 1105.2 149.974 1106.24 148.037C1107.29 146.088 1108.68 144.613 1110.42 143.611C1112.15 142.597 1114.12 142.147 1116.32 142.262C1118.03 142.35 1119.36 142.704 1120.33 143.323C1121.31 143.932 1122.05 144.607 1122.55 145.35C1123.05 146.082 1123.44 146.682 1123.72 147.152L1124.12 147.173L1124.34 143.019L1128.22 143.221L1126.82 170.116C1126.71 172.363 1126.1 174.164 1125.01 175.518C1123.92 176.884 1122.51 177.852 1120.76 178.421C1119.02 179.002 1117.11 179.239 1115.02 179.13ZM1115.63 164.756C1117.24 164.84 1118.63 164.542 1119.78 163.862C1120.93 163.182 1121.83 162.165 1122.48 160.81C1123.13 159.456 1123.5 157.814 1123.6 155.885C1123.7 154.001 1123.5 152.324 1123.01 150.853C1122.52 149.382 1121.74 148.21 1120.67 147.335C1119.6 146.46 1118.25 145.98 1116.61 145.895C1114.91 145.807 1113.47 146.164 1112.29 146.968C1111.12 147.772 1110.22 148.886 1109.57 150.309C1108.94 151.733 1108.58 153.33 1108.49 155.1C1108.39 156.916 1108.59 158.536 1109.09 159.962C1109.6 161.376 1110.39 162.51 1111.47 163.362C1112.57 164.204 1113.95 164.669 1115.63 164.756ZM1146.81 170.403L1148.62 135.541L1160.4 136.152C1163.13 136.294 1165.34 136.904 1167.03 137.981C1168.72 139.048 1169.95 140.437 1170.7 142.149C1171.45 143.861 1171.78 145.744 1171.67 147.798C1171.56 149.852 1171.05 151.697 1170.12 153.333C1169.2 154.969 1167.85 156.242 1166.06 157.15C1164.28 158.048 1162.03 158.426 1159.31 158.285L1150.87 157.847L1151.07 154.102L1159.37 154.533C1161.25 154.63 1162.77 154.385 1163.93 153.797C1165.1 153.209 1165.97 152.378 1166.54 151.303C1167.12 150.218 1167.44 148.978 1167.52 147.582C1167.59 146.186 1167.39 144.924 1166.93 143.797C1166.47 142.669 1165.69 141.764 1164.58 141.08C1163.46 140.385 1161.96 139.988 1160.06 139.89L1152.64 139.505L1151.03 170.622L1146.81 170.403ZM1186.28 172.998C1183.92 172.876 1181.88 172.207 1180.16 170.991C1178.44 169.775 1177.14 168.132 1176.25 166.06C1175.37 163.988 1174.99 161.602 1175.13 158.901C1175.28 156.178 1175.89 153.826 1176.99 151.846C1178.09 149.866 1179.56 148.361 1181.39 147.329C1183.23 146.298 1185.33 145.844 1187.69 145.967C1190.05 146.089 1192.08 146.758 1193.79 147.973C1195.52 149.189 1196.82 150.839 1197.7 152.921C1198.6 155.005 1198.97 157.408 1198.83 160.132C1198.69 162.832 1198.07 165.167 1196.96 167.135C1195.87 169.104 1194.41 170.604 1192.57 171.635C1190.74 172.666 1188.64 173.121 1186.28 172.998ZM1186.47 169.39C1188.26 169.483 1189.76 169.1 1190.97 168.24C1192.17 167.381 1193.09 166.217 1193.73 164.748C1194.36 163.279 1194.72 161.671 1194.81 159.923C1194.9 158.175 1194.71 156.532 1194.23 154.994C1193.75 153.456 1192.96 152.192 1191.85 151.201C1190.74 150.21 1189.29 149.668 1187.5 149.575C1185.71 149.482 1184.21 149.871 1183 150.741C1181.79 151.612 1180.87 152.787 1180.24 154.268C1179.61 155.748 1179.24 157.362 1179.15 159.11C1179.06 160.858 1179.26 162.495 1179.73 164.022C1180.21 165.549 1181.01 166.802 1182.12 167.781C1183.23 168.76 1184.68 169.296 1186.47 169.39ZM1223.15 154.02L1219.48 154.854C1219.29 154.241 1218.98 153.639 1218.57 153.049C1218.17 152.448 1217.6 151.94 1216.87 151.527C1216.15 151.114 1215.2 150.877 1214.03 150.816C1212.43 150.733 1211.07 151.033 1209.97 151.715C1208.88 152.386 1208.3 153.284 1208.24 154.407C1208.19 155.406 1208.51 156.213 1209.21 156.83C1209.91 157.446 1211.01 157.988 1212.54 158.454L1216.37 159.608C1218.68 160.297 1220.38 161.256 1221.46 162.484C1222.55 163.701 1223.04 165.223 1222.95 167.05C1222.87 168.548 1222.37 169.865 1221.45 171C1220.53 172.136 1219.29 173.005 1217.73 173.607C1216.16 174.208 1214.36 174.456 1212.33 174.35C1209.66 174.212 1207.48 173.519 1205.8 172.27C1204.11 171.022 1203.09 169.274 1202.74 167.025L1206.6 166.27C1206.89 167.696 1207.52 168.787 1208.5 169.543C1209.48 170.3 1210.8 170.721 1212.44 170.806C1214.32 170.903 1215.82 170.583 1216.96 169.846C1218.12 169.098 1218.72 168.162 1218.78 167.039C1218.83 166.131 1218.55 165.354 1217.95 164.708C1217.35 164.051 1216.39 163.535 1215.09 163.161L1210.79 161.913C1208.42 161.221 1206.71 160.25 1205.65 159.001C1204.6 157.74 1204.12 156.207 1204.21 154.403C1204.29 152.928 1204.77 151.644 1205.66 150.552C1206.56 149.461 1207.75 148.629 1209.22 148.057C1210.71 147.486 1212.37 147.248 1214.21 147.343C1216.79 147.478 1218.8 148.151 1220.21 149.362C1221.64 150.574 1222.62 152.127 1223.15 154.02ZM1240.63 149.056L1240.45 152.461L1226.9 151.757L1227.08 148.353L1240.63 149.056ZM1231.35 142.294L1235.37 142.502L1234.07 167.423C1234.01 168.558 1234.14 169.418 1234.44 170.002C1234.75 170.576 1235.16 170.973 1235.67 171.193C1236.19 171.402 1236.75 171.522 1237.34 171.553C1237.78 171.576 1238.15 171.572 1238.43 171.541C1238.72 171.499 1238.95 171.465 1239.12 171.44L1239.75 175.091C1239.47 175.179 1239.09 175.262 1238.6 175.339C1238.1 175.427 1237.48 175.451 1236.73 175.413C1235.6 175.354 1234.5 175.052 1233.43 174.507C1232.38 173.963 1231.52 173.174 1230.86 172.138C1230.21 171.103 1229.92 169.825 1230 168.304L1231.35 142.294ZM1255.25 176.579C1252.73 176.448 1250.58 175.779 1248.81 174.572C1247.06 173.354 1245.74 171.715 1244.85 169.655C1243.98 167.585 1243.61 165.21 1243.75 162.532C1243.89 159.854 1244.5 157.519 1245.59 155.527C1246.68 153.524 1248.14 151.995 1249.95 150.94C1251.78 149.875 1253.88 149.403 1256.24 149.526C1257.6 149.596 1258.94 149.893 1260.24 150.416C1261.54 150.939 1262.71 151.739 1263.75 152.817C1264.79 153.884 1265.59 155.268 1266.15 156.97C1266.71 158.671 1266.92 160.742 1266.8 163.182L1266.71 164.884L1246.55 163.838L1246.73 160.365L1262.8 161.2C1262.88 159.724 1262.65 158.393 1262.12 157.204C1261.6 156.017 1260.82 155.06 1259.78 154.335C1258.75 153.61 1257.51 153.21 1256.05 153.134C1254.45 153.051 1253.05 153.377 1251.84 154.11C1250.64 154.833 1249.7 155.808 1249.01 157.036C1248.32 158.263 1247.93 159.597 1247.86 161.038L1247.74 163.353C1247.64 165.328 1247.89 167.02 1248.5 168.428C1249.12 169.826 1250.03 170.914 1251.22 171.693C1252.4 172.46 1253.81 172.886 1255.43 172.97C1256.49 173.025 1257.45 172.927 1258.32 172.676C1259.19 172.414 1259.96 171.999 1260.62 171.43C1261.27 170.849 1261.79 170.114 1262.18 169.224L1266.01 170.515C1265.53 171.81 1264.78 172.932 1263.77 173.88C1262.75 174.818 1261.52 175.527 1260.07 176.01C1258.62 176.481 1257.02 176.67 1255.25 176.579ZM1271.49 176.876L1272.85 150.729L1276.73 150.931L1276.53 154.88L1276.8 154.894C1277.34 153.625 1278.26 152.62 1279.55 151.879C1280.84 151.138 1282.27 150.808 1283.83 150.89C1284.13 150.905 1284.5 150.93 1284.94 150.964C1285.38 150.999 1285.72 151.033 1285.94 151.067L1285.73 155.153C1285.59 155.112 1285.28 155.044 1284.8 154.951C1284.33 154.847 1283.83 154.781 1283.29 154.753C1282.02 154.687 1280.87 154.895 1279.85 155.377C1278.83 155.847 1278.01 156.533 1277.38 157.433C1276.77 158.323 1276.43 159.358 1276.37 160.538L1275.51 177.084L1271.49 176.876Z" fill="#E0E0E0"/>
<path d="M1319.63 145.329L1323.69 157.856L1335.73 163.188L1323.2 167.244L1317.87 179.284L1313.81 166.757L1301.77 161.425L1314.3 157.369L1319.63 145.329Z" fill="#F5D16B"/>
</svg>
