<svg width="1440" height="354" viewBox="0 0 1440 354" fill="none" xmlns="http://www.w3.org/2000/svg">
<rect width="1447.37" height="53" transform="translate(-6 63.1334) rotate(-2.5)" fill="#5502B0"/>
<path d="M240.865 61.8641L246.097 73.9472L258.59 78.1064L246.507 83.3386L242.348 95.8317L237.116 83.7486L224.622 79.5895L236.706 74.3573L240.865 61.8641Z" fill="#F5D16B"/>
<path d="M278.167 93.7674L276.771 61.7978L280.642 61.6288L281.888 90.1641L296.749 89.5153L296.899 92.9495L278.167 93.7674ZM311.497 92.8126C309.332 92.9071 307.411 92.4749 305.732 91.516C304.063 90.5566 302.731 89.1707 301.734 87.3583C300.748 85.5454 300.201 83.4006 300.092 80.9238C299.983 78.4261 300.341 76.2262 301.165 74.3238C301.999 72.421 303.206 70.9191 304.784 69.8179C306.373 68.7163 308.25 68.1183 310.415 68.0237C312.579 67.9292 314.496 68.3617 316.164 69.3211C317.843 70.28 319.176 71.6711 320.162 73.4944C321.16 75.3172 321.713 77.4774 321.822 79.975C321.93 82.4519 321.567 84.6365 320.732 86.5288C319.907 88.4208 318.7 89.9175 317.112 91.0191C315.533 92.1203 313.662 92.7181 311.497 92.8126ZM311.352 89.5033C312.997 89.4315 314.331 88.951 315.356 88.0617C316.381 87.1724 317.118 86.0297 317.568 84.6338C318.018 83.2378 318.208 81.7385 318.138 80.1359C318.068 78.5333 317.748 77.051 317.177 75.6892C316.607 74.3274 315.772 73.2429 314.674 72.4359C313.575 71.6289 312.203 71.2613 310.559 71.3331C308.915 71.4049 307.581 71.8906 306.556 72.7903C305.532 73.69 304.795 74.8431 304.346 76.2494C303.896 77.6558 303.706 79.1603 303.776 80.7629C303.846 82.3656 304.166 83.8426 304.736 85.194C305.306 86.5455 306.14 87.6195 307.239 88.4161C308.337 89.2127 309.708 89.5751 311.352 89.5033ZM337.397 100.69C335.617 100.768 334.077 100.606 332.777 100.204C331.478 99.8123 330.385 99.2657 329.499 98.5641C328.625 97.8724 327.919 97.1212 327.384 96.3105L330.228 94.1218C330.58 94.5444 331.024 95.0255 331.558 95.5652C332.093 96.1153 332.812 96.5792 333.715 96.9568C334.628 97.3444 335.808 97.5067 337.255 97.4435C339.19 97.359 340.767 96.8209 341.986 95.8293C343.204 94.8378 343.77 93.3429 343.682 91.3448L343.47 86.4745L343.158 86.4881C342.906 86.937 342.545 87.495 342.073 88.162C341.612 88.8181 340.929 89.4162 340.025 89.9562C339.13 90.4853 337.902 90.7839 336.341 90.8521C334.406 90.9366 332.648 90.5546 331.068 89.706C329.498 88.857 328.227 87.5779 327.256 85.8686C326.295 84.1589 325.76 82.0552 325.651 79.5576C325.544 77.1016 325.882 74.9442 326.667 73.0853C327.45 71.216 328.591 69.7482 330.087 68.6819C331.583 67.6052 333.341 67.0228 335.36 66.9346C336.921 66.8665 338.171 67.0726 339.109 67.5529C340.057 68.0224 340.791 68.5743 341.308 69.2086C341.836 69.832 342.244 70.3459 342.533 70.7504L342.908 70.734L342.741 66.9251L346.3 66.7697L347.377 91.4337C347.467 93.4943 347.072 95.1902 346.192 96.5215C345.322 97.8628 344.115 98.8696 342.57 99.5418C341.036 100.224 339.311 100.607 337.397 100.69ZM336.696 87.5209C338.174 87.4564 339.408 87.0636 340.399 86.3427C341.389 85.6217 342.122 84.6148 342.597 83.322C343.072 82.0292 343.271 80.4983 343.194 78.7291C343.119 77.0016 342.792 75.4884 342.214 74.1894C341.636 72.8905 340.821 71.8886 339.768 71.1839C338.715 70.4791 337.44 70.1595 335.941 70.2249C334.38 70.293 333.097 70.7453 332.091 71.5816C331.095 72.4175 330.366 73.5129 329.904 74.8677C329.452 76.222 329.261 77.7109 329.332 79.3343C329.405 80.9994 329.73 82.4606 330.306 83.7179C330.892 84.9644 331.716 85.9293 332.778 86.6128C333.85 87.2855 335.156 87.5882 336.696 87.5209ZM363.194 90.5555C361.029 90.65 359.108 90.2178 357.429 89.2588C355.76 88.2995 354.428 86.9136 353.431 85.1011C352.445 83.2883 351.898 81.1434 351.79 78.6666C351.681 76.169 352.038 73.969 352.862 72.0667C353.697 70.1639 354.903 68.6619 356.482 67.5608C358.07 66.4592 359.947 65.8611 362.112 65.7666C364.276 65.6721 366.193 66.1045 367.861 67.0639C369.54 68.0229 370.873 69.414 371.86 71.2372C372.857 73.0601 373.41 75.2203 373.519 77.7179C373.627 80.1947 373.264 82.3793 372.429 84.2717C371.604 86.1636 370.398 87.6604 368.809 88.762C367.23 89.8631 365.359 90.461 363.194 90.5555ZM363.05 87.2461C364.694 87.1743 366.028 86.6938 367.053 85.8045C368.078 84.9152 368.815 83.7726 369.265 82.3766C369.715 80.9807 369.905 79.4814 369.835 77.8787C369.765 76.2761 369.445 74.7939 368.874 73.432C368.304 72.0702 367.47 70.9858 366.371 70.1788C365.272 69.3718 363.901 69.0042 362.256 69.0759C360.612 69.1477 359.278 69.6335 358.253 70.5332C357.229 71.4329 356.492 72.5859 356.043 73.9923C355.593 75.3986 355.404 76.9031 355.474 78.5058C355.544 80.1084 355.864 81.5855 356.433 82.9369C357.003 84.2883 357.837 85.3623 358.936 86.1589C360.034 86.9555 361.405 87.3179 363.05 87.2461ZM401.07 88.4013L391.204 88.832L389.809 56.8625L400.111 56.4127C403.213 56.2773 405.894 56.8014 408.156 57.9851C410.418 59.1584 412.189 60.911 413.469 63.2428C414.748 65.5642 415.46 68.3796 415.605 71.6889C415.75 75.0191 415.282 77.912 414.201 80.3678C413.119 82.8131 411.472 84.7305 409.26 86.12C407.047 87.4991 404.317 88.2595 401.07 88.4013ZM394.926 85.2288L400.67 84.978C403.314 84.8626 405.482 84.257 407.175 83.1613C408.869 82.0655 410.101 80.5572 410.872 78.6363C411.643 76.7154 411.972 74.4542 411.858 71.8525C411.746 69.2716 411.227 67.0682 410.303 65.2422C409.378 63.4057 408.056 62.0246 406.337 61.0987C404.618 60.1624 402.509 59.7488 400.011 59.8578L393.83 60.1277L394.926 85.2288ZM431.715 87.5638C429.405 87.6647 427.39 87.2417 425.67 86.295C423.96 85.3375 422.612 83.9574 421.626 82.155C420.65 80.3417 420.108 78.207 420.001 75.751C419.894 73.295 420.247 71.1109 421.06 69.1986C421.883 67.2754 423.079 65.7531 424.646 64.6316C426.223 63.4992 428.094 62.8858 430.258 62.7913C431.507 62.7367 432.749 62.891 433.985 63.2541C435.221 63.6172 436.359 64.2453 437.399 65.1383C438.438 66.0209 439.288 67.2141 439.948 68.718C440.608 70.2219 440.987 72.0926 441.084 74.33L441.153 75.891L422.67 76.698L422.531 73.5135L437.267 72.8701C437.208 71.5173 436.885 70.3219 436.297 69.284C435.72 68.2457 434.924 67.4411 433.908 66.8703C432.903 66.299 431.735 66.0424 430.403 66.1006C428.935 66.1647 427.682 66.5843 426.642 67.3596C425.611 68.124 424.835 69.0963 424.313 70.2764C423.792 71.4566 423.559 72.7075 423.617 74.0291L423.71 76.1521C423.789 77.9629 424.168 79.4843 424.847 80.7162C425.537 81.9373 426.458 82.8511 427.61 83.4577C428.762 84.0538 430.083 84.3194 431.571 84.2544C432.539 84.2122 433.407 84.0387 434.175 83.7341C434.954 83.4186 435.618 82.9725 436.166 82.396C436.714 81.809 437.126 81.0925 437.401 80.2463L441.004 81.0899C440.682 82.3135 440.099 83.4025 439.254 84.3569C438.409 85.3009 437.347 86.0563 436.069 86.623C434.79 87.1793 433.339 87.4929 431.715 87.5638ZM462.737 67.0661L459.469 68.1472C459.237 67.6047 458.906 67.0822 458.478 66.5796C458.059 66.0661 457.499 65.6526 456.797 65.3392C456.095 65.0258 455.208 64.8924 454.137 64.9392C452.669 65.0033 451.461 65.3949 450.512 66.1141C449.574 66.8224 449.127 67.6916 449.172 68.7219C449.212 69.6377 449.576 70.3464 450.266 70.8481C450.955 71.3498 452.015 71.7466 453.446 72.0386L457.043 72.7574C459.209 73.1842 460.842 73.9105 461.939 74.9365C463.037 75.9521 463.622 77.2977 463.695 78.9732C463.755 80.3469 463.413 81.5921 462.67 82.7089C461.937 83.8253 460.881 84.7264 459.503 85.4121C458.126 86.0979 456.506 86.4814 454.643 86.5628C452.197 86.6695 450.15 86.2272 448.501 85.2356C446.852 84.2441 445.77 82.7378 445.254 80.7167L448.712 79.6899C449.102 80.9658 449.774 81.9061 450.728 82.5109C451.693 83.1152 452.93 83.3845 454.439 83.3186C456.156 83.2436 457.503 82.8198 458.481 82.0473C459.468 81.2639 459.94 80.357 459.895 79.3268C459.858 78.4942 459.536 77.8097 458.929 77.2732C458.321 76.7263 457.408 76.3387 456.188 76.1104L452.151 75.3483C449.933 74.9238 448.284 74.1877 447.206 73.14C446.138 72.0814 445.568 70.7247 445.496 69.0701C445.437 67.7172 445.765 66.5038 446.479 65.43C447.203 64.3557 448.214 63.4931 449.509 62.8422C450.816 62.1909 452.312 61.8284 453.997 61.7548C456.37 61.6512 458.256 62.0902 459.654 63.0718C461.063 64.053 462.091 65.3844 462.737 67.0661ZM468.873 85.441L467.826 61.4638L471.51 61.303L472.557 85.2801L468.873 85.441ZM469.525 57.3858C468.807 57.4172 468.177 57.1997 467.635 56.7333C467.104 56.2664 466.823 55.6896 466.793 55.0027C466.763 54.3159 466.993 53.7167 467.481 53.2054C467.98 52.6935 468.589 52.4219 469.307 52.3906C470.025 52.3592 470.65 52.577 471.181 53.0438C471.723 53.5102 472.008 54.0869 472.038 54.7737C472.068 55.4605 471.834 56.0599 471.335 56.5717C470.846 57.0831 470.243 57.3545 469.525 57.3858ZM488.738 94.0827C486.958 94.1604 485.419 93.9982 484.119 93.5962C482.819 93.2046 481.726 92.658 480.841 91.9564C479.966 91.2647 479.261 90.5135 478.725 89.7028L481.57 87.5141C481.922 87.9367 482.365 88.4178 482.899 88.9575C483.434 89.5076 484.153 89.9715 485.056 90.3491C485.969 90.7367 487.15 90.8989 488.596 90.8358C490.532 90.7513 492.109 90.2132 493.327 89.2216C494.545 88.2301 495.111 86.7352 495.024 84.7371L494.811 79.8668L494.499 79.8804C494.247 80.3293 493.886 80.8873 493.415 81.5543C492.953 82.2104 492.27 82.8085 491.366 83.3485C490.471 83.8776 489.244 84.1762 487.683 84.2444C485.747 84.3289 483.989 83.9469 482.409 83.0983C480.839 82.2493 479.569 80.9702 478.597 79.2609C477.636 77.5512 477.101 75.4475 476.992 72.9499C476.885 70.4939 477.224 68.3365 478.008 66.4776C478.792 64.6083 479.932 63.1405 481.428 62.0742C482.925 60.9975 484.682 60.4151 486.701 60.3269C488.262 60.2588 489.512 60.4649 490.45 60.9452C491.399 61.4147 492.132 61.9666 492.65 62.6009C493.177 63.2243 493.586 63.7382 493.874 64.1427L494.249 64.1263L494.083 60.3174L497.642 60.162L498.719 84.826C498.809 86.8866 498.413 88.5825 497.533 89.9138C496.664 91.2551 495.457 92.2619 493.911 92.9341C492.377 93.6162 490.653 93.9991 488.738 94.0827ZM488.038 80.9132C489.516 80.8487 490.75 80.4559 491.74 79.735C492.73 79.014 493.463 78.0071 493.938 76.7143C494.414 75.4215 494.613 73.8906 494.535 72.1214C494.46 70.3939 494.133 68.8807 493.555 67.5817C492.977 66.2828 492.162 65.2809 491.109 64.5762C490.057 63.8714 488.781 63.5517 487.283 63.6172C485.722 63.6853 484.438 64.1376 483.432 64.9739C482.436 65.8098 481.707 66.9052 481.245 68.26C480.793 69.6143 480.603 71.1032 480.674 72.7266C480.746 74.3917 481.071 75.8529 481.647 77.1102C482.233 78.3567 483.057 79.3216 484.119 80.0051C485.191 80.6778 486.498 80.9804 488.038 80.9132ZM507.827 69.2889L508.457 83.7127L504.773 83.8735L503.726 59.8964L507.285 59.741L507.449 63.4874L507.761 63.4738C508.27 62.2317 509.08 61.2162 510.193 60.4273C511.305 59.6281 512.766 59.1889 514.577 59.1098C516.2 59.0389 517.635 59.3099 518.882 59.9228C520.128 60.5253 521.119 61.483 521.854 62.7959C522.589 64.0984 523 65.7696 523.09 67.8093L523.755 83.0448L520.071 83.2056L519.416 68.2199C519.334 66.3363 518.781 64.8903 517.757 63.8819C516.732 62.8631 515.367 62.391 513.66 62.4655C512.484 62.5169 511.444 62.8177 510.54 63.3681C509.647 63.918 508.956 64.6937 508.468 65.6951C507.98 66.6965 507.766 67.8944 507.827 69.2889Z" fill="#D9D9D9"/>
<path d="M558.562 47.9931L563.794 60.0763L576.287 64.2354L564.204 69.4676L560.045 81.9608L554.813 69.8776L542.32 65.7185L554.403 60.4863L558.562 47.9931Z" fill="#F5D16B"/>
<path d="M595.864 79.8964L594.468 47.9269L598.34 47.7578L599.586 76.2932L614.446 75.6443L614.596 79.0785L595.864 79.8964ZM629.194 78.9417C627.03 79.0362 625.108 78.604 623.429 77.645C621.761 76.6856 620.428 75.2997 619.431 73.4873C618.445 71.6744 617.898 69.5296 617.79 67.0528C617.681 64.5552 618.038 62.3552 618.862 60.4529C619.697 58.5501 620.903 57.0481 622.482 55.9469C624.071 54.8453 625.947 54.2473 628.112 54.1528C630.277 54.0583 632.193 54.4907 633.861 55.4501C635.54 56.409 636.873 57.8001 637.86 59.6234C638.857 61.4462 639.41 63.6065 639.519 66.1041C639.627 68.5809 639.264 70.7655 638.429 72.6579C637.604 74.5498 636.398 76.0466 634.809 77.1482C633.23 78.2493 631.359 78.8472 629.194 78.9417ZM629.05 75.6323C630.694 75.5605 632.028 75.08 633.053 74.1907C634.078 73.3014 634.815 72.1588 635.265 70.7628C635.715 69.3669 635.905 67.8676 635.835 66.2649C635.765 64.6623 635.445 63.1801 634.875 61.8182C634.304 60.4564 633.47 59.372 632.371 58.565C631.272 57.7579 629.901 57.3903 628.256 57.4621C626.612 57.5339 625.278 58.0197 624.254 58.9194C623.229 59.8191 622.493 60.9721 622.043 62.3785C621.594 63.7848 621.404 65.2893 621.474 66.892C621.544 68.4946 621.864 69.9716 622.434 71.3231C623.004 72.6745 623.838 73.7485 624.936 74.5451C626.034 75.3417 627.405 75.7041 629.05 75.6323ZM655.094 86.8194C653.314 86.8971 651.775 86.735 650.475 86.333C649.175 85.9414 648.082 85.3947 647.197 84.6931C646.322 84.0015 645.617 83.2503 645.081 82.4395L647.926 80.2509C648.278 80.6734 648.721 81.1545 649.255 81.6942C649.79 82.2443 650.509 82.7082 651.412 83.0859C652.326 83.4735 653.506 83.6357 654.952 83.5725C656.888 83.488 658.465 82.95 659.683 81.9584C660.901 80.9668 661.467 79.472 661.38 77.4739L661.167 72.6035L660.855 72.6171C660.603 73.066 660.242 73.624 659.771 74.291C659.309 74.9472 658.626 75.5452 657.722 76.0852C656.828 76.6143 655.6 76.9129 654.039 76.9811C652.103 77.0656 650.345 76.6836 648.765 75.835C647.195 74.986 645.925 73.7069 644.953 71.9977C643.992 70.2879 643.457 68.1843 643.348 65.6867C643.241 63.2307 643.58 61.0732 644.364 59.2143C645.148 57.345 646.288 55.8772 647.785 54.8109C649.281 53.7342 651.038 53.1518 653.057 53.0637C654.618 52.9955 655.868 53.2016 656.806 53.6819C657.755 54.1514 658.488 54.7033 659.006 55.3376C659.533 55.961 659.942 56.4749 660.23 56.8794L660.605 56.863L660.439 53.0542L663.998 52.8988L665.075 77.5628C665.165 79.6233 664.769 81.3192 663.889 82.6506C663.02 83.9919 661.813 84.9986 660.267 85.6708C658.733 86.353 657.009 86.7358 655.094 86.8194ZM654.394 73.6499C655.872 73.5854 657.106 73.1927 658.096 72.4717C659.086 71.7507 659.819 70.7439 660.294 69.4511C660.77 68.1583 660.969 66.6273 660.892 64.8581C660.816 63.1306 660.489 61.6174 659.911 60.3185C659.333 59.0195 658.518 58.0177 657.465 57.3129C656.413 56.6081 655.137 56.2885 653.639 56.3539C652.078 56.4221 650.794 56.8743 649.788 57.7107C648.792 58.5466 648.063 59.6419 647.601 60.9967C647.149 62.351 646.959 63.8399 647.03 65.4634C647.102 67.1284 647.427 68.5896 648.003 69.847C648.589 71.0934 649.413 72.0584 650.475 72.7419C651.547 73.4145 652.854 73.7172 654.394 73.6499ZM680.891 76.6845C678.727 76.779 676.805 76.3468 675.126 75.3879C673.458 74.4285 672.125 73.0426 671.129 71.2302C670.142 69.4173 669.595 67.2725 669.487 64.7957C669.378 62.298 669.735 60.0981 670.559 58.1957C671.394 56.2929 672.6 54.791 674.179 53.6898C675.768 52.5882 677.644 51.9901 679.809 51.8956C681.974 51.8011 683.89 52.2336 685.559 53.193C687.237 54.1519 688.57 55.543 689.557 57.3663C690.554 59.1891 691.107 61.3493 691.216 63.8469C691.324 66.3237 690.961 68.5083 690.126 70.4007C689.302 72.2927 688.095 73.7894 686.506 74.891C684.928 75.9922 683.056 76.59 680.891 76.6845ZM680.747 73.3752C682.391 73.3034 683.726 72.8228 684.75 71.9335C685.775 71.0443 686.512 69.9016 686.962 68.5057C687.412 67.1097 687.602 65.6104 687.532 64.0078C687.462 62.4051 687.142 60.9229 686.572 59.5611C686.001 58.1992 685.167 57.1148 684.068 56.3078C682.969 55.5008 681.598 55.1332 679.954 55.205C678.309 55.2768 676.975 55.7625 675.951 56.6622C674.927 57.5619 674.19 58.7149 673.74 60.1213C673.291 61.5277 673.101 63.0322 673.171 64.6348C673.241 66.2374 673.561 67.7145 674.131 69.0659C674.701 70.4173 675.535 71.4914 676.633 72.288C677.731 73.0846 679.103 73.447 680.747 73.3752ZM718.767 74.5303L708.902 74.9611L707.506 42.9915L717.809 42.5417C720.91 42.4063 723.592 42.9305 725.854 44.1142C728.115 45.2875 729.886 47.04 731.166 49.3718C732.446 51.6932 733.158 54.5086 733.302 57.8179C733.448 61.1481 732.98 64.0411 731.898 66.4968C730.816 68.9422 729.169 70.8596 726.957 72.2491C724.744 73.6282 722.014 74.3886 718.767 74.5303ZM712.623 71.3578L718.368 71.107C721.011 70.9916 723.179 70.386 724.873 69.2903C726.566 68.1945 727.798 66.6862 728.57 64.7654C729.341 62.8445 729.669 60.5832 729.556 57.9815C729.443 55.4006 728.925 53.1972 728 51.3712C727.076 49.5348 725.754 48.1536 724.035 47.2277C722.315 46.2914 720.206 45.8778 717.709 45.9868L711.527 46.2567L712.623 71.3578ZM749.413 73.6928C747.102 73.7937 745.087 73.3708 743.367 72.4241C741.657 71.4665 740.309 70.0865 739.323 68.284C738.347 66.4707 737.806 64.336 737.699 61.88C737.591 59.424 737.944 57.2399 738.758 55.3276C739.581 53.4045 740.776 51.8821 742.343 50.7606C743.92 49.6282 745.791 49.0148 747.956 48.9203C749.204 48.8658 750.447 49.0201 751.682 49.3832C752.918 49.7463 754.056 50.3743 755.096 51.2673C756.135 52.1499 756.985 53.3431 757.645 54.847C758.305 56.3509 758.684 58.2216 758.782 60.459L758.85 62.0201L740.367 62.827L740.228 59.6426L754.964 58.9992C754.905 57.6463 754.582 56.4509 753.995 55.4131C753.417 54.3747 752.621 53.5702 751.606 52.9993C750.601 52.428 749.432 52.1715 748.1 52.2296C746.633 52.2937 745.379 52.7134 744.339 53.4886C743.309 54.2531 742.533 55.2253 742.011 56.4055C741.489 57.5856 741.257 58.8365 741.314 60.1582L741.407 62.2811C741.486 64.0919 741.865 65.6133 742.545 66.8452C743.234 68.0663 744.155 68.9802 745.308 69.5867C746.46 70.1829 747.78 70.4484 749.268 70.3835C750.236 70.3412 751.104 70.1678 751.873 69.8631C752.651 69.5476 753.315 69.1016 753.863 68.525C754.411 67.9381 754.823 67.2215 755.099 66.3753L758.701 67.219C758.38 68.4425 757.796 69.5315 756.952 70.4859C756.107 71.4299 755.045 72.1853 753.766 72.752C752.487 73.3083 751.036 73.6219 749.413 73.6928ZM780.435 53.1951L777.166 54.2762C776.934 53.7338 776.604 53.2112 776.175 52.7086C775.757 52.1951 775.196 51.7817 774.494 51.4682C773.793 51.1548 772.906 51.0215 771.834 51.0683C770.367 51.1323 769.158 51.524 768.21 52.2431C767.271 52.9514 766.824 53.8207 766.869 54.8509C766.909 55.7667 767.274 56.4755 767.963 56.9771C768.652 57.4788 769.712 57.8756 771.143 58.1677L774.74 58.8865C776.907 59.3132 778.539 60.0396 779.637 61.0656C780.734 62.0812 781.319 63.4267 781.393 65.1022C781.453 66.4759 781.111 67.7211 780.367 68.838C779.634 69.9544 778.578 70.8554 777.201 71.5412C775.823 72.2269 774.203 72.6105 772.34 72.6918C769.894 72.7986 767.847 72.3562 766.198 71.3647C764.549 70.3732 763.467 68.8669 762.951 66.8458L766.41 65.8189C766.799 67.0948 767.471 68.0352 768.425 68.6399C769.39 69.2443 770.627 69.5135 772.136 69.4476C773.853 69.3726 775.2 68.9489 776.178 68.1763C777.166 67.3929 777.637 66.4861 777.592 65.4558C777.556 64.6233 777.234 63.9387 776.626 63.4022C776.019 62.8553 775.105 62.4677 773.886 62.2394L769.849 61.4773C767.63 61.0528 765.982 60.3167 764.904 59.269C763.836 58.2104 763.266 56.8538 763.193 55.1991C763.134 53.8462 763.462 52.6329 764.176 51.559C764.901 50.4847 765.911 49.6221 767.207 48.9712C768.513 48.3199 770.009 47.9574 771.695 47.8838C774.068 47.7802 775.953 48.2192 777.351 49.2008C778.76 50.182 779.788 51.5134 780.435 53.1951ZM786.57 71.57L785.524 47.5928L789.208 47.432L790.254 71.4091L786.57 71.57ZM787.222 43.5149C786.504 43.5462 785.874 43.3287 785.333 42.8623C784.801 42.3954 784.521 41.8186 784.491 41.1317C784.461 40.4449 784.69 39.8458 785.179 39.3344C785.678 38.8226 786.286 38.551 787.004 38.5196C787.722 38.4883 788.347 38.706 788.878 39.1729C789.42 39.6393 789.706 40.2159 789.736 40.9027C789.766 41.5896 789.531 42.1889 789.032 42.7008C788.544 43.2121 787.94 43.4835 787.222 43.5149ZM806.435 80.2117C804.656 80.2894 803.116 80.1273 801.816 79.7253C800.516 79.3337 799.424 78.787 798.538 78.0854C797.663 77.3938 796.958 76.6426 796.422 75.8318L799.267 73.6432C799.619 74.0657 800.062 74.5468 800.597 75.0865C801.132 75.6366 801.85 76.1005 802.753 76.4782C803.667 76.8658 804.847 77.028 806.293 76.9648C808.229 76.8803 809.806 76.3423 811.024 75.3507C812.243 74.3591 812.808 72.8642 812.721 70.8662L812.508 65.9958L812.196 66.0094C811.945 66.4583 811.583 67.0163 811.112 67.6833C810.651 68.3395 809.968 68.9375 809.063 69.4775C808.169 70.0066 806.941 70.3052 805.38 70.3734C803.444 70.4579 801.686 70.0759 800.106 69.2273C798.537 68.3783 797.266 67.0992 796.295 65.3899C795.334 63.6802 794.799 61.5766 794.69 59.0789C794.583 56.623 794.921 54.4655 795.705 52.6066C796.489 50.7373 797.629 49.2695 799.126 48.2032C800.622 47.1265 802.379 46.5441 804.398 46.4559C805.959 46.3878 807.209 46.5939 808.148 47.0742C809.096 47.5437 809.829 48.0956 810.347 48.7299C810.875 49.3533 811.283 49.8672 811.572 50.2717L811.946 50.2553L811.78 46.4465L815.339 46.2911L816.416 70.9551C816.506 73.0156 816.111 74.7115 815.23 76.0429C814.361 77.3842 813.154 78.3909 811.609 79.0631C810.075 79.7452 808.35 80.1281 806.435 80.2117ZM805.735 67.0422C807.213 66.9777 808.447 66.585 809.437 65.864C810.428 65.143 811.16 64.1362 811.636 62.8434C812.111 61.5506 812.31 60.0196 812.233 58.2504C812.157 56.5229 811.831 55.0097 811.253 53.7108C810.675 52.4118 809.859 51.41 808.807 50.7052C807.754 50.0004 806.479 49.6808 804.98 49.7462C803.419 49.8144 802.135 50.2666 801.129 51.103C800.133 51.9389 799.405 53.0342 798.942 54.389C798.491 55.7433 798.3 57.2322 798.371 58.8557C798.444 60.5207 798.768 61.9819 799.344 63.2392C799.931 64.4857 800.755 65.4507 801.817 66.1342C802.889 66.8068 804.195 67.1095 805.735 67.0422ZM825.524 55.418L826.154 69.8417L822.47 70.0026L821.423 46.0254L824.982 45.87L825.146 49.6165L825.458 49.6028C825.967 48.3607 826.778 47.3452 827.89 46.5563C829.002 45.7571 830.464 45.3179 832.274 45.2389C833.898 45.168 835.333 45.439 836.579 46.0518C837.826 46.6543 838.816 47.612 839.551 48.9249C840.286 50.2275 840.698 51.8986 840.787 53.9383L841.452 69.1738L837.768 69.3347L837.114 54.3489C837.032 52.4653 836.478 51.0193 835.454 50.0109C834.43 48.9922 833.064 48.52 831.357 48.5946C830.181 48.6459 829.141 48.9468 828.237 49.4971C827.344 50.047 826.653 50.8227 826.165 51.8241C825.677 52.8255 825.464 54.0235 825.524 55.418Z" fill="#D9D9D9"/>
<path d="M876.259 34.1222L881.492 46.2053L893.985 50.3645L881.902 55.5966L877.742 68.0898L872.51 56.0067L860.017 51.8475L872.1 46.6154L876.259 34.1222Z" fill="#F5D16B"/>
<path d="M913.562 66.0254L912.166 34.0559L916.037 33.8869L917.283 62.4222L932.144 61.7734L932.294 65.2076L913.562 66.0254ZM946.892 65.0707C944.727 65.1652 942.805 64.733 941.126 63.7741C939.458 62.8147 938.125 61.4288 937.129 59.6164C936.143 57.8035 935.595 55.6586 935.487 53.1818C935.378 50.6842 935.736 48.4842 936.56 46.5819C937.394 44.6791 938.601 43.1771 940.179 42.076C941.768 40.9744 943.645 40.3763 945.809 40.2818C947.974 40.1873 949.89 40.6197 951.559 41.5791C953.238 42.5381 954.57 43.9292 955.557 45.7524C956.554 47.5753 957.107 49.7355 957.216 52.2331C957.325 54.7099 956.961 56.8945 956.126 58.7869C955.302 60.6788 954.095 62.1756 952.506 63.2772C950.928 64.3784 949.056 64.9762 946.892 65.0707ZM946.747 61.7614C948.391 61.6896 949.726 61.209 950.751 60.3197C951.775 59.4304 952.513 58.2878 952.962 56.8919C953.412 55.4959 953.602 53.9966 953.532 52.394C953.462 50.7913 953.142 49.3091 952.572 47.9473C952.002 46.5854 951.167 45.501 950.068 44.694C948.97 43.887 947.598 43.5194 945.954 43.5912C944.31 43.663 942.975 44.1487 941.951 45.0484C940.927 45.9481 940.19 47.1011 939.74 48.5075C939.291 49.9139 939.101 51.4184 939.171 53.021C939.241 54.6236 939.561 56.1007 940.131 57.4521C940.701 58.8035 941.535 59.8775 942.633 60.6741C943.732 61.4707 945.103 61.8331 946.747 61.7614ZM972.791 72.9485C971.012 73.0262 969.472 72.864 968.172 72.462C966.872 72.0704 965.78 71.5238 964.894 70.8222C964.019 70.1305 963.314 69.3793 962.778 68.5686L965.623 66.3799C965.975 66.8024 966.418 67.2836 966.953 67.8233C967.488 68.3734 968.207 68.8372 969.109 69.2149C970.023 69.6025 971.203 69.7647 972.65 69.7016C974.585 69.6171 976.162 69.079 977.38 68.0874C978.599 67.0958 979.164 65.601 979.077 63.6029L978.864 58.7325L978.552 58.7462C978.301 59.1951 977.939 59.753 977.468 60.42C977.007 61.0762 976.324 61.6743 975.419 62.2142C974.525 62.7433 973.297 63.042 971.736 63.1101C969.8 63.1946 968.043 62.8126 966.462 61.9641C964.893 61.1151 963.622 59.8359 962.651 58.1267C961.69 56.417 961.155 54.3133 961.046 51.8157C960.939 49.3597 961.277 47.2022 962.061 45.3434C962.845 43.4741 963.985 42.0063 965.482 40.94C966.978 39.8633 968.736 39.2808 970.754 39.1927C972.315 39.1245 973.565 39.3306 974.504 39.811C975.452 40.2805 976.185 40.8324 976.703 41.4666C977.231 42.09 977.639 42.604 977.928 43.0084L978.302 42.9921L978.136 39.1832L981.695 39.0278L982.772 63.6918C982.862 65.7523 982.467 67.4483 981.587 68.7796C980.717 70.1209 979.51 71.1276 977.965 71.7998C976.431 72.482 974.706 72.8649 972.791 72.9485ZM972.091 59.779C973.569 59.7145 974.803 59.3217 975.793 58.6007C976.784 57.8798 977.516 56.8729 977.992 55.5801C978.467 54.2873 978.666 52.7563 978.589 50.9872C978.513 49.2597 978.187 47.7464 977.609 46.4475C977.031 45.1486 976.215 44.1467 975.163 43.4419C974.11 42.7372 972.835 42.4175 971.336 42.483C969.775 42.5511 968.491 43.0034 967.485 43.8397C966.49 44.6756 965.761 45.7709 965.298 47.1257C964.847 48.4801 964.656 49.9689 964.727 51.5924C964.8 53.2575 965.124 54.7187 965.7 55.976C966.287 57.2224 967.111 58.1874 968.173 58.8709C969.245 59.5435 970.551 59.8462 972.091 59.779ZM998.589 62.8136C996.424 62.9081 994.502 62.4759 992.824 61.5169C991.155 60.5575 989.823 59.1716 988.826 57.3592C987.84 55.5463 987.292 53.4015 987.184 50.9247C987.075 48.4271 987.433 46.2271 988.257 44.3248C989.091 42.422 990.298 40.92 991.876 39.8188C993.465 38.7172 995.342 38.1192 997.506 38.0247C999.671 37.9302 1001.59 38.3626 1003.26 39.322C1004.93 40.2809 1006.27 41.672 1007.25 43.4953C1008.25 45.3181 1008.8 47.4783 1008.91 49.976C1009.02 52.4528 1008.66 54.6374 1007.82 56.5298C1007 58.4217 1005.79 59.9185 1004.2 61.0201C1002.62 62.1212 1000.75 62.719 998.589 62.8136ZM998.444 59.5042C1000.09 59.4324 1001.42 58.9519 1002.45 58.0626C1003.47 57.1733 1004.21 56.0307 1004.66 54.6347C1005.11 53.2388 1005.3 51.7395 1005.23 50.1368C1005.16 48.5342 1004.84 47.0519 1004.27 45.6901C1003.7 44.3283 1002.86 43.2439 1001.77 42.4368C1000.67 41.6298 999.295 41.2622 997.651 41.334C996.007 41.4058 994.672 41.8916 993.648 42.7912C992.624 43.6909 991.887 44.844 991.438 46.2503C990.988 47.6567 990.798 49.1612 990.868 50.7638C990.938 52.3665 991.258 53.8435 991.828 55.1949C992.398 56.5464 993.232 57.6204 994.33 58.417C995.429 59.2136 996.8 59.576 998.444 59.5042ZM1036.46 60.6594L1026.6 61.0901L1025.2 29.1206L1035.51 28.6707C1038.61 28.5353 1041.29 29.0595 1043.55 30.2432C1045.81 31.4165 1047.58 33.169 1048.86 35.5009C1050.14 37.8222 1050.86 40.6376 1051 43.947C1051.14 47.2771 1050.68 50.1701 1049.6 52.6258C1048.51 55.0712 1046.87 56.9886 1044.65 58.3781C1042.44 59.7572 1039.71 60.5176 1036.46 60.6594ZM1030.32 57.4869L1036.07 57.2361C1038.71 57.1206 1040.88 56.5151 1042.57 55.4193C1044.26 54.3236 1045.5 52.8153 1046.27 50.8944C1047.04 48.9735 1047.37 46.7122 1047.25 44.1105C1047.14 41.5297 1046.62 39.3262 1045.7 37.5002C1044.77 35.6638 1043.45 34.2827 1041.73 33.3568C1040.01 32.4205 1037.9 32.0068 1035.41 32.1159L1029.22 32.3858L1030.32 57.4869ZM1067.11 59.8219C1064.8 59.9227 1062.78 59.4998 1061.06 58.5531C1059.35 57.5955 1058.01 56.2155 1057.02 54.413C1056.04 52.5997 1055.5 50.4651 1055.4 48.0091C1055.29 45.5531 1055.64 43.3689 1056.45 41.4566C1057.28 39.5335 1058.47 38.0112 1060.04 36.8896C1061.62 35.7573 1063.49 35.1438 1065.65 35.0493C1066.9 34.9948 1068.14 35.1491 1069.38 35.5122C1070.62 35.8753 1071.75 36.5034 1072.79 37.3964C1073.83 38.2789 1074.68 39.4722 1075.34 40.9761C1076 42.48 1076.38 44.3506 1076.48 46.5881L1076.55 48.1491L1058.06 48.9561L1057.93 45.7716L1072.66 45.1282C1072.6 43.7753 1072.28 42.58 1071.69 41.5421C1071.11 40.5038 1070.32 39.6992 1069.3 39.1284C1068.3 38.5571 1067.13 38.3005 1065.8 38.3587C1064.33 38.4227 1063.08 38.8424 1062.04 39.6177C1061.01 40.3821 1060.23 41.3544 1059.71 42.5345C1059.19 43.7147 1058.95 44.9655 1059.01 46.2872L1059.1 48.4102C1059.18 50.221 1059.56 51.7423 1060.24 52.9743C1060.93 54.1954 1061.85 55.1092 1063 55.7158C1064.16 56.3119 1065.48 56.5775 1066.97 56.5125C1067.93 56.4703 1068.8 56.2968 1069.57 55.9921C1070.35 55.6766 1071.01 55.2306 1071.56 54.6541C1072.11 54.0671 1072.52 53.3505 1072.8 52.5044L1076.4 53.348C1076.08 54.5716 1075.49 55.6605 1074.65 56.615C1073.8 57.559 1072.74 58.3143 1071.46 58.8811C1070.18 59.4374 1068.73 59.751 1067.11 59.8219ZM1098.13 39.3242L1094.86 40.4053C1094.63 39.8628 1094.3 39.3403 1093.87 38.8376C1093.45 38.3242 1092.89 37.9107 1092.19 37.5973C1091.49 37.2838 1090.6 37.1505 1089.53 37.1973C1088.06 37.2614 1086.86 37.653 1085.91 38.3721C1084.97 39.0804 1084.52 39.9497 1084.57 40.98C1084.61 41.8958 1084.97 42.6045 1085.66 43.1062C1086.35 43.6078 1087.41 44.0047 1088.84 44.2967L1092.44 45.0155C1094.6 45.4422 1096.24 46.1686 1097.33 47.1946C1098.43 48.2102 1099.02 49.5557 1099.09 51.2312C1099.15 52.6049 1098.81 53.8502 1098.06 54.967C1097.33 56.0834 1096.28 56.9845 1094.9 57.6702C1093.52 58.3559 1091.9 58.7395 1090.04 58.8208C1087.59 58.9276 1085.54 58.4852 1083.9 57.4937C1082.25 56.5022 1081.16 54.9959 1080.65 52.9748L1084.11 51.948C1084.5 53.2239 1085.17 54.1642 1086.12 54.769C1087.09 55.3733 1088.32 55.6425 1089.83 55.5766C1091.55 55.5017 1092.9 55.0779 1093.88 54.3054C1094.86 53.522 1095.33 52.6151 1095.29 51.5848C1095.25 50.7523 1094.93 50.0678 1094.32 49.5313C1093.72 48.9843 1092.8 48.5967 1091.58 48.3685L1087.55 47.6063C1085.33 47.1819 1083.68 46.4458 1082.6 45.398C1081.53 44.3394 1080.96 42.9828 1080.89 41.3281C1080.83 39.9753 1081.16 38.7619 1081.87 37.6881C1082.6 36.6138 1083.61 35.7512 1084.9 35.1003C1086.21 34.4489 1087.71 34.0865 1089.39 34.0129C1091.76 33.9093 1093.65 34.3483 1095.05 35.3299C1096.46 36.311 1097.49 37.6425 1098.13 39.3242ZM1104.27 57.699L1103.22 33.7219L1106.9 33.561L1107.95 57.5382L1104.27 57.699ZM1104.92 29.6439C1104.2 29.6752 1103.57 29.4577 1103.03 28.9913C1102.5 28.5245 1102.22 27.9476 1102.19 27.2608C1102.16 26.5739 1102.39 25.9748 1102.88 25.4634C1103.37 24.9516 1103.98 24.68 1104.7 24.6487C1105.42 24.6173 1106.04 24.8351 1106.58 25.3019C1107.12 25.7683 1107.4 26.3449 1107.43 27.0318C1107.46 27.7186 1107.23 28.318 1106.73 28.8298C1106.24 29.3412 1105.64 29.6125 1104.92 29.6439ZM1124.13 66.3408C1122.35 66.4185 1120.81 66.2563 1119.51 65.8543C1118.21 65.4627 1117.12 64.9161 1116.24 64.2145C1115.36 63.5228 1114.66 62.7716 1114.12 61.9609L1116.96 59.7722C1117.32 60.1947 1117.76 60.6759 1118.29 61.2156C1118.83 61.7657 1119.55 62.2295 1120.45 62.6072C1121.36 62.9948 1122.54 63.157 1123.99 63.0939C1125.93 63.0093 1127.5 62.4713 1128.72 61.4797C1129.94 60.4881 1130.51 58.9933 1130.42 56.9952L1130.21 52.1248L1129.89 52.1385C1129.64 52.5874 1129.28 53.1453 1128.81 53.8123C1128.35 54.4685 1127.66 55.0666 1126.76 55.6065C1125.87 56.1356 1124.64 56.4343 1123.08 56.5024C1121.14 56.5869 1119.38 56.2049 1117.8 55.3564C1116.23 54.5074 1114.96 53.2282 1113.99 51.519C1113.03 49.8093 1112.5 47.7056 1112.39 45.208C1112.28 42.752 1112.62 40.5945 1113.4 38.7357C1114.19 36.8663 1115.33 35.3986 1116.82 34.3323C1118.32 33.2556 1120.08 32.6731 1122.1 32.585C1123.66 32.5168 1124.91 32.7229 1125.85 33.2033C1126.79 33.6728 1127.53 34.2247 1128.04 34.8589C1128.57 35.4823 1128.98 35.9963 1129.27 36.4007L1129.64 36.3844L1129.48 32.5755L1133.04 32.4201L1134.11 57.0841C1134.2 59.1446 1133.81 60.8406 1132.93 62.1719C1132.06 63.5132 1130.85 64.5199 1129.31 65.1921C1127.77 65.8743 1126.05 66.2572 1124.13 66.3408ZM1123.43 53.1713C1124.91 53.1068 1126.14 52.714 1127.13 51.993C1128.12 51.2721 1128.86 50.2652 1129.33 48.9724C1129.81 47.6796 1130.01 46.1486 1129.93 44.3795C1129.85 42.652 1129.53 41.1387 1128.95 39.8398C1128.37 38.5408 1127.56 37.539 1126.5 36.8342C1125.45 36.1295 1124.18 35.8098 1122.68 35.8752C1121.12 35.9434 1119.83 36.3957 1118.83 37.232C1117.83 38.0679 1117.1 39.1632 1116.64 40.518C1116.19 41.8724 1116 43.3612 1116.07 44.9847C1116.14 46.6498 1116.47 48.111 1117.04 49.3683C1117.63 50.6147 1118.45 51.5797 1119.51 52.2632C1120.59 52.9358 1121.89 53.2385 1123.43 53.1713ZM1143.22 41.547L1143.85 55.9708L1140.17 56.1316L1139.12 32.1545L1142.68 31.9991L1142.84 35.7455L1143.16 35.7319C1143.66 34.4897 1144.47 33.4742 1145.59 32.6854C1146.7 31.8861 1148.16 31.447 1149.97 31.3679C1151.6 31.297 1153.03 31.568 1154.28 32.1809C1155.52 32.7833 1156.51 33.741 1157.25 35.054C1157.98 36.3565 1158.4 38.0276 1158.48 40.0674L1159.15 55.3028L1155.47 55.4637L1154.81 40.478C1154.73 38.5943 1154.18 37.1484 1153.15 36.14C1152.13 35.1212 1150.76 34.6491 1149.05 34.7236C1147.88 34.7749 1146.84 35.0758 1145.93 35.6262C1145.04 36.1761 1144.35 36.9517 1143.86 37.9531C1143.37 38.9545 1143.16 40.1525 1143.22 41.547Z" fill="#D9D9D9"/>
<path d="M1193.96 20.2512L1199.19 32.3344L1211.68 36.4935L1199.6 41.7257L1195.44 54.2189L1190.21 42.1357L1177.71 37.9766L1189.8 32.7444L1193.96 20.2512Z" fill="#F5D16B"/>
<path d="M-8.5 112.5L1440 49V353.5H-8.5V112.5Z" fill="#F27D6F"/>
</svg>
