<?xml version="1.0" encoding="UTF-8"?>
<svg id="Layer_2" data-name="Layer 2" xmlns="http://www.w3.org/2000/svg" viewBox="0 0 110.19 140.06">
  <defs>
    <style>
      .cls-1 {
        fill: #ececec;
      }

      .cls-2 {
        fill: #fbd206;
      }

      .cls-3 {
        fill: #dcdcdc;
      }

      .cls-4 {
        fill: #c8c8c8;
      }

      .cls-5 {
        fill: #1a2e35;
      }

      .cls-6 {
        fill: #2b454e;
      }
    </style>
  </defs>
  <g id="Layer_1-2" data-name="Layer 1">
    <g>
      <rect class="cls-1" x="30.07" y="4.19" width="76.42" height="135.86" transform="translate(136.55 144.25) rotate(-180)"/>
      <rect class="cls-3" x="26.36" y="0" width="83.83" height="3.92" transform="translate(136.55 3.92) rotate(-180)"/>
      <rect class="cls-1" x="0" y="0" width="26.36" height="3.92" transform="translate(26.36 3.92) rotate(-180)"/>
      <rect class="cls-3" x="4.17" y="4.19" width="25.89" height="135.86" transform="translate(34.24 144.25) rotate(-180)"/>
      <g>
        <path class="cls-4" d="m38.26,55.53h60.03v33.95h-60.03v-33.95Zm59.78.25h-59.53s0,33.45,0,33.45h59.53s0-33.45,0-33.45Z"/>
        <g>
          <rect class="cls-4" x="64.97" y="65.46" width="11.67" height="6.71" transform="translate(141.62 137.64) rotate(-180)"/>
          <path class="cls-4" d="m61.4,65.84h11.92v5.95h-11.92v-5.95Zm11.67.25h-11.42s0,5.45,0,5.45h11.42s0-5.45,0-5.45Z"/>
        </g>
      </g>
      <g>
        <path class="cls-4" d="m38.26,98.11h60.03v33.95h-60.03v-33.95Zm59.78.25h-59.53s0,33.45,0,33.45h59.53s0-33.45,0-33.45Z"/>
        <g>
          <rect class="cls-4" x="64.97" y="108.04" width="11.67" height="6.71" transform="translate(141.62 222.79) rotate(-180)"/>
          <path class="cls-4" d="m61.4,108.42h11.92v5.95h-11.92v-5.95Zm11.67.25h-11.42s0,5.45,0,5.45h11.42s0-5.45,0-5.45Z"/>
        </g>
      </g>
      <g>
        <path class="cls-4" d="m38.26,12.95h60.03v33.95h-60.03V12.95Zm59.78.25h-59.53s0,33.45,0,33.45h59.53s0-33.45,0-33.45Z"/>
        <g>
          <rect class="cls-4" x="64.97" y="22.89" width="11.67" height="6.71" transform="translate(141.62 52.48) rotate(-180)"/>
          <path class="cls-4" d="m61.4,23.27h11.92v5.95h-11.92v-5.95Zm11.67.25h-11.42s0,5.45,0,5.45h11.42s0-5.45,0-5.45Z"/>
        </g>
      </g>
      <g>
        <g>
          <path class="cls-2" d="m46.27,50.9c-.65,4.46-.41,9.07.68,13.43.51,2.05,1.21,4.02,2.06,5.94,1.07,2.46,2.19,4.86,1.92,7.55-.26.17.63.15.66-.12,7.19-4.09,16.4-4.84,21.93-11.53,2.62-3.17,3.94-7.18,4.57-11.2.68-4.37.87-9.21-.26-13.52-.95-3.65-3.08-7.16-6.51-8.95-3.54-1.84-8.17-1.69-11.89-.53-8.03,2.5-12.03,11.16-13.16,18.93Z"/>
          <g>
            <path class="cls-5" d="m42.58,104.1c.98-3.27,1.96-6.54,2.97-9.8,1.97-6.39,4.02-12.75,6.29-19.04,1.36-3.77,2.79-7.5,4.3-11.19-.26-2.32-.36-4.63-.86-6.95-.6-2.79-1.47-5.48-2.29-8.2-.05-.17.22-.26.29-.1,1.61,3.76,3.72,8.56,3.77,13.01,1.75-4.18,3.63-8.3,5.65-12.36.11-3.46.24-6.81-.32-10.3-.02-.16.21-.2.24-.05.54,2.92.92,6.06.7,9.09,1.55-3.05,3.17-6.06,4.9-9.03.16-.27.53,0,.39.27-2.7,5.2-5.21,10.51-7.56,15.89,3.26-2.89,7.2-5.07,11.27-6.53.18-.06.31.2.13.27-4.63,1.94-8.52,4.67-12.19,8.07-1.69,3.94-3.3,7.91-4.83,11.91,4.5-4.41,10.65-7.31,16.6-8.86.2-.05.26.26.06.32-6.89,2.07-12.24,5.98-17.48,10.67-.61,1.62-1.21,3.24-1.79,4.86-2.22,6.16-4.32,12.36-6.34,18.59-.97,2.99-1.92,5.98-2.85,8.97-1.01,3.22-1.79,6.63-3.1,9.74-.12.3-.66.23-.59-.13.59-3.09,1.71-6.12,2.62-9.13Z"/>
            <path class="cls-5" d="m54.5,44.61c1.29,1.97,2.15,4.14,2.59,6.45.01.06-.08.09-.1.03-.8-2.17-1.74-4.27-2.81-6.33-.11-.21.2-.34.32-.16Z"/>
            <path class="cls-5" d="m67.32,59.59c1.86-1.06,4.33-1.89,6.45-2.17.06,0,.09.08.03.1-1.04.43-2.13.73-3.18,1.13-1.05.41-2.08.9-3.15,1.27-.22.08-.37-.21-.16-.33Z"/>
            <path class="cls-5" d="m70.93,41.57c.65-.43,1.35-.99,2.08-1.28.11-.05.21.1.12.18-.58.53-1.38.92-2.05,1.33-.13.08-.28-.14-.15-.23Z"/>
          </g>
        </g>
        <g>
          <path class="cls-2" d="m22.04,75.31c5.18,1.54,10.38,2.96,15.55,4.48.45.13,9.2-16.63,6.04-25.27-2.92-8-9.61-13.98-17.59-16.69-3.7-1.26-8.24-2.31-12.14-1.45-3.47.77-5.92,3.61-7.05,6.87-1.54,4.44-1.02,9.73-.19,14.26.78,4.2,2.31,8.34,5.09,11.64,2.75,3.27,6.26,4.97,10.29,6.16Z"/>
          <g>
            <path class="cls-5" d="m14.53,59.38c3.3,1.66,6.64,2.87,10.15,4,2.2.71,4.67,1.35,6.77,2.45-2.19-4.87-4.58-9.64-7.13-14.37-3.34-.97-6.86-2.48-9.38-4.84-.14-.13.04-.32.19-.22,2.76,1.95,5.8,3.12,8.85,4.44-.69-1.27-1.38-2.54-2.09-3.81-.2-.35.29-.7.53-.36,2.71,3.92,5.15,8.06,7.35,12.35.55-3.78.74-7.47.53-11.32,0-.1.14-.11.15-.01.64,4.07.61,8.38-.13,12.44,1.81,3.62,3.47,7.34,4.95,11.09.59-2.26,1.36-4.48,1.87-6.76.74-3.28,1.08-6.61.74-9.96,0-.1.13-.1.15-.01,1,5.94.09,12.65-2.17,18.29.87,2.26,1.69,4.53,2.45,6.81,3.86,11.65,6.25,23.65,6.87,35.91.01.28-.4.31-.44.03-1.41-12.03-3.89-24-7.71-35.49-1.5-4.51-3.23-8.89-5.12-13.19-3.06-.9-6.1-2.13-9.11-3.17-2.93-1.01-5.93-2.19-8.39-4.11-.1-.07,0-.23.12-.18Z"/>
            <path class="cls-5" d="m9.71,54.51c3.17,1.13,6.17,2.7,9.33,3.84.15.05.06.29-.09.26-3.35-.69-6.67-1.73-9.36-3.92-.1-.08.01-.22.12-.18Z"/>
            <path class="cls-5" d="m35.56,47.68c-.04-.17.21-.26.26-.09.87,2.92,1.47,6.01.62,9-.03.12-.22.12-.22-.01-.15-3.01.02-5.93-.66-8.89Z"/>
            <path class="cls-5" d="m22.48,40.93c1.06,1.35,1.44,3.28,1.37,4.96,0,.11-.18.18-.21.04-.39-1.67-1.03-3.19-1.54-4.81-.08-.24.23-.39.38-.19Z"/>
          </g>
        </g>
        <g>
          <path class="cls-2" d="m83.61,82.71c-1.52,4.82-5.12,11.47-10.83,11.53-3.7.04-7.43-.4-11.14-.46-3.97-.06-7.96-.05-11.92.18-.32.02.48-11.9,10.03-17.7,2.68-1.63,5.95-2.14,8.98-2.8,3.47-.75,7.05-1.26,10.61-1.11,2.19.09,4.02.55,4.8,2.8.82,2.35.2,5.26-.53,7.55Z"/>
          <g>
            <path class="cls-5" d="m79.5,76.68c-2.32.6-4.66,1.28-6.99,2.02.62-.64,1.23-1.3,1.92-1.88,1-.83,2.1-1.5,3.17-2.22.09-.06.04-.23-.08-.19-2.12.83-4.32,2.57-5.63,4.48-2.9.94-5.78,1.97-8.55,3.11-1.96.81-3.78,1.77-5.47,2.88.61-1.18,1.17-2.39,1.98-3.44,1.27-1.64,2.98-2.56,4.64-3.72.16-.11.02-.33-.15-.25-3.75,1.67-6.03,4.37-7.45,8.08-1.96,1.4-3.75,3.03-5.42,4.92-6.32,7.18-11.29,16.73-11.31,26.47,0,.23.37.3.42.06,1.79-9.68,5.62-18.37,12.05-25.88.45-.53.92-1.03,1.39-1.52,1.74-.18,3.46-.41,5.22-.39,2.03.03,4.05.3,6.07.46,3.33.27,7.02.31,10.03-1.37.13-.07.04-.3-.11-.25-6.7,2.44-13.74-.65-20.46.8,2.87-2.75,6.12-4.82,9.91-6.39.2-.08.41-.16.62-.25,4.3.52,8.85,1.64,13.04.24.12-.04.07-.23-.05-.2-4.05,1.01-7.93-.26-11.93-.46,4.35-1.69,8.78-3.04,13.15-4.72.37-.14.38-.48-.02-.38Z"/>
            <path class="cls-5" d="m81.4,80.92c-2.1.35-4.15.36-6.26.47-.05,0-.06.08-.01.09,2.06.46,4.31.18,6.32-.4.1-.03.06-.18-.04-.16Z"/>
            <path class="cls-5" d="m67.25,76.79c-1.14.4-2.21,1.36-3.1,2.16-.11.1.04.29.16.2.53-.38,1.07-.74,1.61-1.1.5-.32,1.05-.58,1.51-.96.14-.12-.01-.37-.18-.31Z"/>
          </g>
        </g>
        <g>
          <path class="cls-2" d="m33.53,92.29c.07.16-.16.31-.25.14t0,0s-.08.09-.15.1c-3.86.83-7.74,1.68-11.67,2.04-3.16.28-6.8.46-9.56-1.38-3.75-2.48-6.21-9.12-4.18-13.34,2.39-5.01,9.61-2.29,13.24-.51,5.57,2.72,10.04,7.32,12.58,12.97Z"/>
          <g>
            <path class="cls-5" d="m36.33,94.61c-2.12-2.08-4.47-3.81-6.97-5.3-1.71-2.9-4.33-5.31-7.06-7.2-.14-.09-.25.12-.13.22,2.36,1.82,4.2,3.95,5.95,6.26-2.79-1.56-5.73-2.84-8.74-3.98-1.05-1.92-2.75-3.72-4.69-4.7-.04-.02-.09.03-.05.06,1.69,1.33,3.06,2.7,4.24,4.45-1.78-.66-3.57-1.28-5.36-1.87-.16-.05-.22.19-.07.25,3.19,1.25,6.45,2.56,9.61,4.08-3.99.54-7.58.66-11.64-.03-.11-.02-.15.13-.05.17,3.92,1.12,8.41,1.32,12.35.18,2.02.99,3.99,2.07,5.86,3.28-1.57-.2-3.15.07-4.74.39-2.77.55-5.48,1.04-8.32.94-.11,0-.13.17-.03.19,4.83.83,9.39-1.36,14.18-.79,1.77,1.22,3.45,2.56,4.98,4.07,3.01,2.95,5.41,6.48,7.27,10.26,2.01,4.1,3.11,8.45,4.74,12.68.07.19.33.11.3-.08-1.4-8.35-5.55-17.56-11.64-23.52Z"/>
            <path class="cls-5" d="m21.77,83.15c-.28-.58-.77-1.07-1.24-1.5-.4-.38-.9-.87-1.43-1.07-.05-.02-.08.05-.05.08.4.45.95.78,1.37,1.21.43.43.79.94,1.22,1.37.06.06.15-.02.11-.09Z"/>
            <path class="cls-5" d="m13.81,85.75c-.72-.18-1.47-.17-2.2-.32-.74-.15-1.42-.41-2.13-.64-.09-.03-.15.11-.07.16,1.18.7,3.03,1.29,4.4,1.02.11-.02.11-.2,0-.22Z"/>
          </g>
        </g>
        <g>
          <g>
            <polygon class="cls-6" points="56.23 107.83 55.59 115.03 53.44 139.33 34.41 139.33 31.72 115.03 30.93 107.83 56.23 107.83"/>
            <polygon class="cls-5" points="56.23 107.83 55.59 115.03 31.72 115.03 30.93 107.83 56.23 107.83"/>
          </g>
          <rect class="cls-6" x="29.05" y="105.87" width="29.07" height="5.84"/>
        </g>
      </g>
    </g>
  </g>
</svg>